<svg xmlns="http://www.w3.org/2000/svg" aria-hidden="true" style="position:absolute;width:0;height:0;overflow:hidden"><defs><symbol id="icon-icon-close" viewBox="0 0 32 32"><path d="M32 3.223 28.777 0 16 12.777 3.223 0 0 3.223 12.777 16 0 28.777 3.223 32 16 19.223 28.777 32 32 28.777 19.223 16 32 3.223z"/></symbol><symbol id="icon-client-6" viewBox="0 0 61 32"><path d="M31.486 15.657a1.816 1.816 0 0 1-.373-1.227v-1.779c0-.545.124-.96.371-1.243s.672-.425 1.275-.423c.566 0 .968.121 1.206.362.259.308.385.684.356 1.064v.418h-1.013v-.423a2.126 2.126 0 0 0-.029-.414.402.402 0 0 0-.145-.246.584.584 0 0 0-.367-.096.622.622 0 0 0-.386.101.48.48 0 0 0-.168.271 2.095 2.095 0 0 0-.04.44v2.159c-.016.208.029.417.13.606.05.064.12.115.202.147s.172.044.261.034a.55.55 0 0 0 .358-.098.436.436 0 0 0 .151-.262c.024-.143.034-.288.031-.433v-.438h1.013v.4c.028.396-.095.789-.35 1.118-.233.264-.629.396-1.212.396s-1.023-.141-1.273-.434zM35.703 15.675c-.256-.277-.384-.68-.384-1.214V12.59c0-.528.128-.928.384-1.2s.684-.406 1.283-.405c.595 0 1.021.135 1.277.405.256.271.386.671.386 1.2v1.871c0 .528-.13.934-.39 1.212s-.683.418-1.273.418-1.025-.141-1.283-.416zm1.755-.448c.092-.173.133-.363.122-.554v-2.291a1.008 1.008 0 0 0-.12-.543c-.051-.065-.123-.117-.207-.149s-.176-.043-.267-.032c-.091-.011-.184 0-.268.032s-.156.084-.208.149a1 1 0 0 0-.122.543v2.301c-.013.191.029.38.122.554.059.058.132.105.214.137a.715.715 0 0 0 .52 0 .634.634 0 0 0 .214-.137v-.011zM39.867 11.04h1.09l.82 3.452.839-3.452h1.061l.107 4.983h-.785l-.084-3.463-.809 3.463h-.629l-.839-3.476-.078 3.476h-.793l.099-4.983zM45.007 11.04h1.699c.978 0 1.468.472 1.468 1.415 0 .903-.516 1.354-1.545 1.353h-.579v2.214h-1.048l.006-4.983zm1.451 2.129c.103.011.209.003.309-.024s.191-.073.268-.133a.81.81 0 0 0 .151-.563 1.535 1.535 0 0 0-.05-.452c-.015-.05-.041-.096-.078-.137s-.081-.075-.132-.1a1.086 1.086 0 0 0-.467-.08h-.407v1.489h.407zM49.685 11.04h1.126l1.155 4.983h-.977l-.228-1.149h-1.004l-.235 1.149h-.992l1.155-4.983zm.962 3.256-.392-2.091-.392 2.091h.784zM52.899 11.04h.734l1.405 2.842V11.04h.87v4.983h-.698l-1.413-2.967v2.967h-.899l.002-4.983zM57.946 14.123l-1.168-3.076h.983l.712 1.976.669-1.976h.963l-1.154 3.076v1.9h-1.006v-1.9zM33.105 18.201v.261h-.855v2.025h-.358v-2.025h-.86v-.261h2.074zM35.787 20.486h-.277a.12.12 0 0 1-.078-.022.115.115 0 0 1-.046-.052l-.247-.543h-1.187l-.247.543a.15.15 0 0 1-.038.062.132.132 0 0 1-.078.022h-.277l1.048-2.285h.365l1.061 2.276zm-1.736-.848h.99l-.419-.93a1.675 1.675 0 0 1-.078-.215c-.015.043-.027.085-.04.121l-.038.096-.415.928zM37.594 20.262a1.176 1.176 0 0 0 .365-.027c.051-.011.102-.025.151-.042.046-.016.092-.036.14-.056v-.514h-.419a.083.083 0 0 1-.057-.018c-.007-.005-.012-.012-.016-.019s-.005-.015-.005-.023v-.175h.814v.876a1.6 1.6 0 0 1-.705.234c-.102.01-.204.015-.306.014a1.618 1.618 0 0 1-.528-.085 1.275 1.275 0 0 1-.419-.239 1.084 1.084 0 0 1-.27-.362 1.133 1.133 0 0 1-.096-.474 1.048 1.048 0 0 1 .364-.84 1.28 1.28 0 0 1 .419-.237c.18-.058.37-.087.562-.085.098 0 .195.006.291.02a1.418 1.418 0 0 1 .46.149c.064.036.125.076.182.119l-.101.141c-.008.013-.02.024-.034.031s-.031.012-.048.012a.144.144 0 0 1-.065-.018 1.171 1.171 0 0 1-.103-.054 1.028 1.028 0 0 0-.14-.062 1.275 1.275 0 0 0-.459-.071 1.257 1.257 0 0 0-.405.063.799.799 0 0 0-.503.465 1.065 1.065 0 0 0 0 .762.804.804 0 0 0 .21.288c.086.078.19.14.306.181.133.04.275.055.415.045zM40.936 20.225h1.145v.261h-1.495v-2.285h.358l-.009 2.025zM43.272 20.486h-.358v-2.285h.358v2.285zM44.606 18.212a.187.187 0 0 1 .054.042l1.533 1.723a.366.366 0 0 1 0-.081v-1.702h.312v2.294h-.18a.176.176 0 0 1-.078-.013.22.22 0 0 1-.057-.043l-1.53-1.721v1.777h-.3v-2.285h.187c.02 0 .041.004.059.011zM49.146 18.201v.252h-1.271v.755h1.03v.242h-1.03v.78h1.271v.252h-1.64v-2.28h1.64zM11.573 4.088l15.921 3.901v13.669l-15.921-3.899V4.088zm-1.021-1.165v15.5l17.961 4.402V7.326L10.552 2.922z"/><path d="M20.178 30.021 2.215 25.615V10.116l17.963 4.404v15.501z"/><path d="m10.849 3.913 15.713 3.852-6.682 5.768L4.164 9.679l6.685-5.766zm-.297-.99-8.337 7.194 17.963 4.404 8.335-7.194-17.961-4.404zM21.189 29.149l7.324-6.322-7.324-1.797v8.118z"/></symbol><symbol id="icon-client-5" viewBox="0 0 61 32"><path d="M14.096 26.683c.16.178.246.402.241.631.008.15-.022.299-.086.437s-.163.261-.288.36a1.753 1.753 0 0 1-1.086.291h-1.909v-4.001h1.87c.369-.022.736.072 1.036.266.121.091.216.206.279.336s.092.271.083.413a.866.866 0 0 1-.217.612 1.03 1.03 0 0 1-.569.312c.253.042.482.163.645.342zm-2.239-.604h.799a.817.817 0 0 0 .508-.133c.06-.049.107-.11.136-.178s.042-.141.035-.213c.006-.072-.007-.145-.036-.213s-.075-.128-.134-.178a.822.822 0 0 0-.523-.134h-.786v1.05zm1.385 1.536c.064-.05.114-.112.147-.183s.047-.147.042-.224c.005-.077-.01-.154-.044-.226s-.085-.134-.15-.185a.893.893 0 0 0-.543-.145h-.838v1.101h.849c.191.01.38-.039.536-.139zM17.917 28.404l-1.04-1.564h-.391v1.564h-.894v-4.001h1.694c.427-.027.849.095 1.179.34.237.217.38.503.402.807s-.075.604-.277.849a1.426 1.426 0 0 1-.808.407l1.107 1.599h-.973zm-1.431-2.109h.732c.508 0 .762-.202.762-.606.005-.083-.009-.165-.041-.242s-.082-.148-.145-.207a.856.856 0 0 0-.576-.162h-.74l.009 1.218zM22.807 27.599h-1.782l-.315.805h-.938l1.637-3.957h1.014l1.631 3.957h-.938l-.308-.805zm-.238-.606-.651-1.689-.651 1.689h1.303zM28.928 28.404h-.888l-1.991-2.721v2.721h-.886v-4.001h.886l1.991 2.737v-2.737h.888v4.001zM33.997 27.446a1.847 1.847 0 0 1-.804.706 2.859 2.859 0 0 1-1.248.252h-1.581v-4.001h1.581c.432-.011.861.075 1.248.246.34.154.62.398.804.698.183.325.278.685.278 1.05s-.095.725-.278 1.05zm-1.017-.095c.253-.266.393-.604.393-.955s-.139-.689-.393-.955a1.653 1.653 0 0 0-1.112-.34h-.617v2.59h.617c.406.023.806-.099 1.112-.34zM23.363 2.144s11.463 3.896 11.219 9.534v9.536s-11.454-3.898-11.215-9.536l-.004-9.534zM44.795 18.982c2.165-1.341 4.669-2.172 7.283-2.417V13.58c-3.012 1.045-5.566 2.94-7.283 5.401z"/><path d="M43.494 19.881c1.771-3.212 4.843-5.691 8.583-6.926V4.354s-16.325 5.55-15.979 13.579V31.51s.727-.248 1.872-.714c0-.434 0-.872.052-1.312.338-3.727 2.306-7.181 5.472-9.602z"/><path d="M41.942 24.925c.086-.942.277-1.873.571-2.78-1.971 2.091-3.166 4.685-3.414 7.418a11.74 11.74 0 0 0-.044.782 48.95 48.95 0 0 0 3.14-1.49 12.678 12.678 0 0 1-.255-3.931zM42.591 24.974a12.165 12.165 0 0 0 .202 3.56c4.46-2.402 9.471-6.115 9.279-10.601v-.391c-3.186.321-6.168 1.575-8.486 3.57a12.337 12.337 0 0 0-.995 3.863z"/></symbol><symbol id="icon-client-4" viewBox="0 0 61 32"><path d="M10.794 11.415h-.002c-1.687 0-3.056 1.233-3.056 2.755v.002c0 1.521 1.368 2.755 3.056 2.755h.002c1.687 0 3.056-1.233 3.056-2.755v-.002c0-1.521-1.368-2.755-3.056-2.755zM33.346 10.535c-.005-2.113-.938-4.138-2.595-5.633s-3.903-2.336-6.247-2.341c-2.344.004-4.591.845-6.25 2.34s-2.592 3.52-2.596 5.634v11.653s17.686-1.776 17.688-11.651v-.002zM1.543 26.012c.004 1.47.654 2.88 1.807 3.919s2.715 1.626 4.346 1.63c1.631-.004 3.192-.59 4.346-1.63s1.803-2.448 1.807-3.918v-8.108S1.543 19.142 1.543 26.011zm6.153 1.453c-.319 0-.63-.085-.895-.245s-.471-.386-.593-.652-.154-.558-.092-.839c.062-.282.216-.541.441-.744s.513-.341.825-.397.636-.027.931.083c.294.11.546.296.723.535s.272.52.272.807c.001.192-.04.381-.121.558s-.199.338-.349.473c-.15.136-.328.243-.524.317s-.406.111-.618.111v-.005zM18.95 24.852v3.017h-.622v-3.017h.622zm1.202 1.289v.485H18.78v-.485h1.372zm.145-1.289v.487H18.78v-.487h1.517zm2.839 1.438v.143c0 .23-.031.435-.093.618s-.15.338-.263.466a1.134 1.134 0 0 1-.406.292 1.29 1.29 0 0 1-.52.102c-.189 0-.363-.034-.52-.102a1.165 1.165 0 0 1-.406-.292 1.348 1.348 0 0 1-.267-.466 1.915 1.915 0 0 1-.093-.618v-.143c0-.231.031-.437.093-.618.062-.183.15-.338.263-.466.115-.128.25-.227.406-.294.157-.068.331-.102.52-.102.191 0 .364.034.52.102.157.068.293.166.406.294.115.128.203.284.265.466.064.181.096.387.096.618zm-.628.143v-.147c0-.16-.015-.301-.044-.423s-.072-.224-.128-.307a.558.558 0 0 0-.487-.251.602.602 0 0 0-.28.064.569.569 0 0 0-.205.187c-.056.083-.098.185-.127.307s-.044.263-.044.423v.147c0 .159.015.3.044.423.029.122.072.225.128.309s.126.146.207.189c.082.043.174.064.28.064s.198-.022.28-.064c.082-.043.15-.105.205-.189s.098-.187.127-.309c.029-.123.044-.264.044-.423zm2.646.647a.412.412 0 0 0-.025-.145.267.267 0 0 0-.087-.12c-.043-.038-.103-.074-.18-.11s-.178-.073-.301-.112a3.806 3.806 0 0 1-.39-.149 1.518 1.518 0 0 1-.323-.193.87.87 0 0 1-.22-.259.72.72 0 0 1-.078-.342c0-.126.028-.24.083-.342s.133-.192.232-.265c.099-.074.217-.132.352-.172a1.6 1.6 0 0 1 .45-.06c.223 0 .417.04.582.12s.294.19.386.33c.093.14.139.299.139.479h-.618a.456.456 0 0 0-.056-.232.378.378 0 0 0-.166-.16.588.588 0 0 0-.278-.058.648.648 0 0 0-.27.049.364.364 0 0 0-.162.131.322.322 0 0 0-.054.183c0 .051.013.098.038.139.026.042.065.08.116.116s.114.07.189.102c.075.032.161.063.259.093.165.049.309.105.433.168s.231.132.315.209c.085.078.148.165.191.263s.064.209.064.334c0 .131-.026.249-.076.352s-.125.192-.222.263-.212.127-.346.164a1.65 1.65 0 0 1-.45.056c-.149 0-.296-.02-.442-.058-.145-.04-.277-.1-.396-.18-.118-.08-.212-.183-.282-.307s-.105-.272-.105-.442h.624c0 .094.015.174.044.238s.069.118.122.158c.054.04.118.069.191.087.075.018.156.027.245.027a.668.668 0 0 0 .265-.045.328.328 0 0 0 .208-.31zm2.394-2.228v3.017h-.62v-3.017h.62zm.929 0v.487h-2.462v-.487h2.462zm2.378 2.533v.485h-1.606v-.485h1.606zm-1.403-2.533v3.017h-.622v-3.017h.622zm1.194 1.229v.473h-1.397v-.473h1.397zm.207-1.229v.487h-1.604v-.487h1.604zm.365 0h1.125c.231 0 .429.035.595.104.167.069.296.172.386.307s.135.302.135.5a.952.952 0 0 1-.083.417.77.77 0 0 1-.23.288 1.21 1.21 0 0 1-.346.183l-.197.104h-.978l-.004-.485h.727c.109 0 .2-.02.272-.058s.126-.093.162-.162a.49.49 0 0 0 .056-.241c0-.097-.018-.18-.054-.251s-.091-.125-.164-.162-.165-.056-.276-.056h-.504v2.53h-.622v-3.017zm1.687 3.018-.688-1.345.657-.004.696 1.32v.029h-.665zm3.264-1.076H35.4v-.485h.769c.119 0 .215-.02.29-.058.075-.04.129-.096.164-.166s.052-.15.052-.238c0-.09-.017-.174-.052-.251s-.089-.14-.164-.187-.172-.071-.29-.071h-.553v2.53h-.622v-3.017h1.175c.236 0 .439.043.607.129a.918.918 0 0 1 .525.862c0 .195-.045.363-.135.506s-.22.252-.39.33a1.439 1.439 0 0 1-.607.116zm3.584.591v.485h-1.606v-.485h1.606zm-1.403-2.533v3.017h-.622v-3.017h.622zm1.194 1.229v.473h-1.397v-.473h1.397zm.207-1.229v.487h-1.604v-.487h1.604zm1.756 0v3.017h-.62v-3.017h.62zm.928 0v.487h-2.462v-.487h2.462zm2.379 2.533v.485h-1.606v-.485h1.606zm-1.403-2.533v3.017h-.622v-3.017h.622zm1.194 1.229v.473h-1.396v-.473h1.396zm.207-1.229v.487h-1.604v-.487h1.604zm.365 0h1.125c.23 0 .429.035.595.104.167.069.296.172.386.307s.134.302.134.5a.952.952 0 0 1-.083.417.78.78 0 0 1-.23.288 1.21 1.21 0 0 1-.346.183l-.196.104h-.978l-.004-.485h.728c.109 0 .199-.02.271-.058s.126-.093.162-.162a.49.49 0 0 0 .056-.241c0-.097-.018-.18-.054-.251s-.091-.125-.164-.162a.593.593 0 0 0-.275-.056H45.8v2.53h-.622v-3.017zm1.687 3.018-.688-1.345.657-.004.696 1.32v.029h-.665zm2.602-.79a.39.39 0 0 0-.025-.145.267.267 0 0 0-.087-.12c-.042-.038-.103-.074-.181-.11s-.178-.073-.3-.112a3.806 3.806 0 0 1-.39-.149 1.543 1.543 0 0 1-.323-.193.87.87 0 0 1-.22-.259.72.72 0 0 1-.078-.342c0-.126.027-.24.083-.342s.133-.192.232-.265c.1-.074.217-.132.352-.172a1.6 1.6 0 0 1 .45-.06c.222 0 .417.04.582.12.166.08.294.19.386.33.093.14.138.299.138.479h-.618a.456.456 0 0 0-.056-.232c-.036-.068-.091-.121-.165-.16s-.165-.058-.278-.058a.655.655 0 0 0-.27.049.366.366 0 0 0-.161.131.322.322 0 0 0-.054.183c0 .051.012.098.038.139s.065.08.116.116c.051.036.114.07.188.102s.161.063.259.093c.165.049.309.105.433.168.125.062.23.132.315.209a.769.769 0 0 1 .255.597.718.718 0 0 1-.298.615c-.096.072-.212.127-.346.164s-.283.056-.45.056c-.149 0-.296-.02-.442-.058-.145-.04-.277-.1-.395-.18-.118-.08-.212-.183-.282-.307s-.105-.272-.105-.442h.624c0 .094.014.174.043.238s.07.118.123.158c.054.04.118.069.191.087s.156.027.244.027a.668.668 0 0 0 .265-.045.324.324 0 0 0 .207-.31z"/></symbol><symbol id="icon-client-3" viewBox="0 0 61 32"><path d="M19.8 31.011c.011 0 .022.002.033.007s.02.009.027.017l.156.147a1.287 1.287 0 0 1-.439.279 1.722 1.722 0 0 1-.623.1c-.201.004-.4-.029-.586-.094a1.304 1.304 0 0 1-.441-.263 1.18 1.18 0 0 1-.285-.407 1.346 1.346 0 0 1-.1-.522 1.201 1.201 0 0 1 .41-.931c.134-.115.293-.205.469-.265.192-.064.397-.096.603-.094.192-.004.382.025.56.085.154.058.297.137.42.235l-.131.157a.156.156 0 0 1-.033.029.088.088 0 0 1-.053.011.119.119 0 0 1-.056-.017l-.07-.042-.098-.053a1.152 1.152 0 0 0-.309-.094 1.378 1.378 0 0 0-.232-.017 1.26 1.26 0 0 0-.433.07.912.912 0 0 0-.56.511 1.042 1.042 0 0 0-.08.414 1.07 1.07 0 0 0 .08.42.903.903 0 0 0 .541.506c.127.045.264.068.402.067.08.001.159-.004.238-.013a.93.93 0 0 0 .361-.112c.055-.031.107-.065.154-.103a.128.128 0 0 1 .074-.027zM24.31 30.274c.002.177-.033.353-.105.519-.064.15-.164.288-.294.403s-.288.205-.462.265a1.926 1.926 0 0 1-1.187 0 1.384 1.384 0 0 1-.459-.265 1.18 1.18 0 0 1-.297-.407 1.329 1.329 0 0 1 0-1.039 1.21 1.21 0 0 1 .297-.408c.131-.111.287-.198.459-.255a1.897 1.897 0 0 1 1.187 0c.174.06.33.15.461.265.129.116.229.252.295.402.072.167.108.344.105.522zm-.41 0a1.087 1.087 0 0 0-.074-.417.866.866 0 0 0-.539-.509 1.398 1.398 0 0 0-.863 0 .93.93 0 0 0-.33.197.831.831 0 0 0-.211.312 1.208 1.208 0 0 0 0 .834.851.851 0 0 0 .211.312.935.935 0 0 0 .33.195c.278.089.585.089.863 0a.935.935 0 0 0 .33-.195.866.866 0 0 0 .209-.312c.052-.134.078-.275.074-.417zM27.387 30.711l.041.094c.016-.033.029-.063.045-.094a.927.927 0 0 1 .051-.092l.997-1.55c.02-.027.037-.043.056-.049a.322.322 0 0 1 .082-.009h.295v2.521h-.35v-1.931a.631.631 0 0 1 0-.087L27.6 31.085c-.013.024-.033.044-.058.058s-.056.021-.085.021h-.056c-.031 0-.06-.007-.086-.02s-.046-.034-.058-.058l-1.033-1.581v2.023h-.337v-2.516h.295a.252.252 0 0 1 .082.009.11.11 0 0 1 .055.049l1.019 1.551c.02.029.037.058.051.09zM31.142 30.586v.944h-.39v-2.517h.87c.165-.002.328.016.486.055a.982.982 0 0 1 .344.157.642.642 0 0 1 .195.247.754.754 0 0 1 .067.322.704.704 0 0 1-.283.574.993.993 0 0 1-.346.167 1.653 1.653 0 0 1-.471.058l-.473-.007zm0-.271h.473a1.14 1.14 0 0 0 .303-.038.652.652 0 0 0 .219-.109.475.475 0 0 0 .18-.379c.005-.07-.009-.14-.039-.205s-.077-.124-.136-.172a.85.85 0 0 0-.525-.135h-.473v1.037zM36.39 31.533h-.308a.15.15 0 0 1-.086-.023.165.165 0 0 1-.051-.058l-.265-.609h-1.334l-.275.609a.148.148 0 0 1-.136.081h-.308l1.171-2.521h.406l1.187 2.521zm-1.933-.935h1.102l-.464-1.026a1.466 1.466 0 0 1-.087-.237l-.045.132c-.014.04-.029.077-.043.107l-.461 1.024zM38.076 29.024a.174.174 0 0 1 .058.045l1.709 1.9V29.012h.35v2.521h-.195a.196.196 0 0 1-.08-.015.208.208 0 0 1-.062-.047l-1.706-1.898a.631.631 0 0 1 0 .087V31.534h-.35v-2.521h.207c.024 0 .048.004.07.011zM43.071 30.531v1.001h-.39v-1.001l-1.08-1.518h.35a.135.135 0 0 1 .084.022.228.228 0 0 1 .052.056l.676.979c.027.042.051.08.071.116s.035.072.049.107l.05-.109a.883.883 0 0 1 .067-.115l.667-.986a.228.228 0 0 1 .05-.053.13.13 0 0 1 .084-.025h.354l-1.082 1.525zM27.194 24.783c.17.018.341.033.515.047 2.635-1.007 4.863-2.655 6.407-4.738s2.336-4.509 2.275-6.974l-2.903-2.481c.591 2.625.314 5.338-.797 7.837s-3.015 4.683-5.497 6.31z"/><path d="m26.157 24.667.078.013c2.652-1.621 4.675-3.884 5.805-6.498s1.318-5.457.536-8.162L28.44 6.487c1.673 2.904 2.346 6.154 1.941 9.372s-1.87 6.272-4.225 8.807zM40.182 16.03c-.703 2.708-2.409 5.151-4.865 6.966a15.52 15.52 0 0 1-2.311 1.418c2.001-.502 3.839-1.39 5.374-2.596s2.726-2.696 3.48-4.357l-1.677-1.431z"/><path d="m39.524 15.631-2.388-2.04c-.046 2.326-.819 4.599-2.242 6.583s-3.44 3.607-5.844 4.698h.011c.536 0 1.071-.027 1.603-.082 2.247-.783 4.232-2.03 5.777-3.628s2.604-3.498 3.081-5.532zM26.503 4.998l-2.849-2.437c-2.547.841-4.736 2.319-6.284 4.241S14.991 11 14.983 13.333c.009 2.577 1.025 5.079 2.885 7.107s4.46 3.469 7.386 4.094c2.612-2.72 4.142-6.081 4.367-9.593s-.868-6.996-3.119-9.943zM46.105 15.255c-.011-3.058-1.437-5.988-3.967-8.151s-5.961-3.381-9.539-3.39a15.373 15.373 0 0 0-4.836.769l17.441 14.902a9.964 9.964 0 0 0 .902-4.13z"/></symbol><symbol id="icon-client-2" viewBox="0 0 61 32"><path d="M29.475 3.482h-.078c-.119-.007-.238-.01-.357-.013h-.258c-.225 0-.455.006-.683.017a.45.45 0 0 0-.052 0 16.039 16.039 0 0 0-5.966 1.522l-.245.118v12.561l.574-.195a21.838 21.838 0 0 1 1.596-.473 19.5 19.5 0 0 1 4.593-.61v1.65a13.28 13.28 0 0 0-.604.017h-.047a18.349 18.349 0 0 0-3.533.542c-1.466.367-2.88.918-4.209 1.64V4.148a16.852 16.852 0 0 1 4.416-1.796 16.944 16.944 0 0 1 4.162-.537h.242c.29.007.573.02.838.04.7.049 1.393.16 2.074.33v1.624a12.873 12.873 0 0 0-2.009-.303l-.041-.003c-.14-.012-.28-.024-.411-.024zm2.858 1.66c.36.027.733.04 1.111.04a17.848 17.848 0 0 0 4.376-.561 18.006 18.006 0 0 0 4.208-1.642v15.823a16.907 16.907 0 0 1-4.417 1.796c-1.36.35-2.758.53-4.162.535a12.675 12.675 0 0 1-3.157-.372V4.836c.244.056.495.108.751.152.419.071.861.123 1.292.154zm8.053.123-.574.193a25.36 25.36 0 0 1-1.596.478c-1.559.401-3.16.606-4.769.612-.375 0-.719-.01-1.052-.032l-.458-.03v12.922l.393.035c.365.032.741.048 1.119.048a15.26 15.26 0 0 0 3.756-.486 15.714 15.714 0 0 0 2.935-1.055l.246-.118V5.267zM21.318 25.765a.856.856 0 0 0-.639-.258.952.952 0 0 0-.369.069c-.108.043-.205.107-.287.189s-.144.18-.185.289a.941.941 0 0 0-.066.356v2.152a1.01 1.01 0 0 0 .085.441c.051.11.124.209.215.289a.742.742 0 0 0 .296.153c.105.029.213.044.322.045a.908.908 0 0 0 .891-.906v-.241h-.563v.192a.504.504 0 0 1-.033.192.333.333 0 0 1-.082.121.395.395 0 0 1-.236.082.285.285 0 0 1-.264-.115.515.515 0 0 1-.075-.289v-2.007a.69.69 0 0 1 .069-.322c.029-.045.071-.082.119-.105s.103-.032.156-.025a.291.291 0 0 1 .251.121.455.455 0 0 1 .093.289v.186h.557v-.219a1.012 1.012 0 0 0-.257-.68zM24.661 25.74a1.007 1.007 0 0 0-.64-.237.965.965 0 0 0-.633.237.888.888 0 0 0-.218.301.995.995 0 0 0-.082.417v2.064a.992.992 0 0 0 .082.423.847.847 0 0 0 .218.289c.086.08.187.142.297.182a.942.942 0 0 0 .672 0c.112-.041.215-.102.304-.182s.162-.179.212-.289a.989.989 0 0 0 .082-.423v-2.064a.998.998 0 0 0-.082-.417.924.924 0 0 0-.212-.301zm-.263 2.783a.373.373 0 0 1-.112.299.413.413 0 0 1-.53 0 .372.372 0 0 1-.112-.299v-2.064a.373.373 0 0 1 .112-.299.413.413 0 0 1 .53 0 .372.372 0 0 1 .112.299v2.064zM29.051 29.445v-3.908h-.541l-.71 2.069h-.01l-.716-2.069h-.535v3.908h.558v-2.378h.01l.547 1.681h.278l.551-1.681h.01v2.378h.558zM32.223 25.811a.768.768 0 0 0-.316-.213 1.236 1.236 0 0 0-.405-.061h-.829v3.908h.557v-1.526h.287c.174.008.347-.029.502-.107a.806.806 0 0 0 .306-.299.949.949 0 0 0 .128-.34c.022-.147.032-.296.03-.444a2.273 2.273 0 0 0-.054-.558.833.833 0 0 0-.205-.359zm-.287 1.192a.477.477 0 0 1-.052.203.316.316 0 0 1-.143.137.564.564 0 0 1-.263.049h-.254v-1.329h.287a.542.542 0 0 1 .251.049.32.32 0 0 1 .131.144c.03.069.047.143.049.218v.26c0 .091.006.185 0 .268h-.006zM34.861 25.537h-.456l-.861 3.908h.557l.164-.84h.759l.164.84h.557l-.883-3.908zm-.514 2.536.274-1.417h.01l.273 1.417h-.557zM38.459 27.891h-.01l-.841-2.354h-.535v3.908h.557v-2.35h.012l.851 2.35h.524v-3.908h-.557v2.354zM41.861 25.537l-.448 1.554h-.011l-.448-1.554h-.59l.765 2.256v1.652h.557v-1.652l.765-2.256h-.589zM19.766 30.549h.268v.753h.182v-.753h.267v-.154h-.718v.154zM22.022 30.394l-.352.907h.194l.075-.206h.362l.078.206h.198l-.36-.907h-.194zm-.029.548.123-.336.123.336h-.247zM24.252 30.967h.209v.117a.344.344 0 0 1-.215.076.232.232 0 0 1-.193-.087.376.376 0 0 1-.067-.237c0-.202.088-.303.261-.303a.191.191 0 0 1 .205.144l.179-.035c-.039-.177-.166-.267-.385-.267a.457.457 0 0 0-.317.117.447.447 0 0 0-.131.349.494.494 0 0 0 .116.34.431.431 0 0 0 .345.132.548.548 0 0 0 .385-.144v-.358h-.393v.153zM26.53 30.394h-.184v.907h.636v-.154h-.452v-.753zM28.456 30.394h-.184v.907h.184v-.907zM30.338 31l-.372-.606h-.178v.907h.171v-.593l.365.593h.182v-.907h-.168V31zM32.041 30.902h.452v-.154h-.452v-.199h.486v-.154h-.67v.907h.689v-.154h-.505v-.245zM36.168 30.752h-.357v-.358h-.182v.907h.182v-.397h.357v.397h.182v-.907h-.182v.358zM37.88 30.902h.453v-.154h-.453v-.199h.488v-.154h-.67v.907h.687v-.154h-.505v-.245zM40.202 30.902c.158-.025.238-.108.238-.252.005-.039-.001-.078-.017-.113s-.04-.066-.072-.089a.51.51 0 0 0-.266-.053H39.7v.907h.183v-.379h.036a.255.255 0 0 1 .113.02.187.187 0 0 1 .065.066l.198.289h.218l-.111-.177a.627.627 0 0 0-.201-.218zm-.184-.125h-.134v-.228h.144a.466.466 0 0 1 .185.022.117.117 0 0 1 .04.095c-.001.018-.006.035-.014.051s-.02.029-.035.04a.528.528 0 0 1-.185.022zM41.953 30.902h.452v-.154h-.452v-.199h.488v-.154h-.672v.907h.689v-.154h-.505v-.245z"/></symbol><symbol id="icon-client-1" viewBox="0 0 61 32"><path d="m21.602 2.587 4.476 4.265-8.308-.005v20.689h21.716v-7.91l4.471 4.259V2.588H21.603zM39.29 19.125 26.599 7.034H39.29v12.091zm-3.94 5.385H21.207V10.596h1v12.972H35.35v.942zm-11.323 6.858-.527-1.084h-.435l.764 1.435v.835h.395v-.835l.764-1.435h-.434l-.527 1.084zm1.943-1.084h.093l.858 2.27h-.412l-.184-.532h-.879l-.183.532h-.41l.854-2.27h.262zm-.416 1.429h.665l-.333-.963-.332.963zm2.744-.377-.05-.063c-.058-.077-.104-.151-.136-.223s-.048-.147-.048-.224c0-.119.024-.22.073-.306s.118-.151.207-.196a.664.664 0 0 1 .314-.07c.115 0 .215.023.298.07a.49.49 0 0 1 .224.629.588.588 0 0 1-.108.162 1.147 1.147 0 0 1-.159.139l-.158.115.449.53a.93.93 0 0 0 .097-.424h.324c0 .11-.011.215-.033.314a.986.986 0 0 1-.167.375l.333.393h-.435l-.132-.155a.88.88 0 0 1-.233.127c-.11.04-.228.059-.352.059-.151 0-.281-.027-.391-.083s-.196-.131-.256-.228a.625.625 0 0 1-.089-.332c0-.093.02-.174.057-.243s.091-.136.158-.196c.061-.055.132-.112.21-.167zm.185.229-.047.035a.56.56 0 0 0-.123.13.356.356 0 0 0-.064.203c0 .067.014.127.042.181a.321.321 0 0 0 .127.129.418.418 0 0 0 .204.047.6.6 0 0 0 .366-.129l-.505-.594zm.09-.415.14-.094c.065-.044.112-.086.14-.128s.042-.096.042-.159c0-.054-.021-.104-.063-.149s-.1-.069-.176-.069a.23.23 0 0 0-.217.134.318.318 0 0 0 .009.277c.024.049.057.1.099.155l.026.033zm3.973.665h-.39a.7.7 0 0 1-.072.251.356.356 0 0 1-.157.155.598.598 0 0 1-.27.053c-.091 0-.17-.018-.235-.055s-.119-.088-.162-.155a.76.76 0 0 1-.093-.239 1.498 1.498 0 0 1-.029-.312v-.192c0-.121.011-.228.033-.322.023-.095.057-.174.102-.239s.1-.113.167-.147.145-.05.233-.05c.11 0 .198.019.265.056s.119.089.153.159c.035.07.058.153.069.251h.39a.98.98 0 0 0-.128-.404c-.069-.117-.165-.209-.29-.276s-.278-.1-.459-.1c-.142 0-.271.025-.385.075s-.211.122-.292.217a.963.963 0 0 0-.187.338c-.042.132-.064.28-.064.443v.189c0 .163.021.31.063.443s.104.245.184.339c.08.093.176.164.288.215s.239.075.379.075c.183 0 .338-.033.466-.1s.227-.158.298-.273a.918.918 0 0 0 .125-.398zm2.166-.333v-.125c0-.172-.023-.325-.069-.46s-.109-.252-.192-.348c-.084-.097-.183-.17-.298-.22s-.243-.076-.383-.076-.267.025-.382.076-.214.123-.298.22a1.02 1.02 0 0 0-.194.348 1.421 1.421 0 0 0-.069.46v.125c0 .172.023.325.069.462.047.136.112.252.196.348s.183.169.298.22a.95.95 0 0 0 .382.075c.14 0 .268-.025.383-.075a.826.826 0 0 0 .296-.22c.084-.096.147-.211.192-.348s.067-.29.067-.462zm-.392-.128v.128c0 .127-.012.239-.037.337-.023.098-.059.181-.106.248a.459.459 0 0 1-.404.201.506.506 0 0 1-.231-.05.503.503 0 0 1-.175-.151c-.048-.068-.084-.15-.11-.248s-.037-.21-.037-.337v-.128c0-.127.012-.239.037-.335.025-.098.061-.179.108-.245s.106-.117.173-.149c.068-.035.145-.052.231-.052s.164.017.232.052c.069.033.127.084.173.149s.084.147.108.245c.025.097.037.209.037.335z"/></symbol><symbol id="icon-linkedin-1" viewBox="0 0 32 32"><path fill="#f4f4fd" d="M31.992 32v-.001H32V20.263c0-5.741-1.236-10.164-7.948-10.164-3.227 0-5.392 1.771-6.276 3.449h-.093v-2.913h-6.364v21.364h6.627V21.42c0-2.785.528-5.479 3.977-5.479 3.399 0 3.449 3.179 3.449 5.657v10.401h6.62zM.528 10.636h6.635V32H.528V10.636zM3.843 0C1.722 0 0 1.721 0 3.843s1.721 3.879 3.843 3.879c2.121 0 3.843-1.757 3.843-3.879A3.846 3.846 0 0 0 3.843 0z" style="fill:var(--color2, #f4f4fd)"/></symbol><symbol id="icon-facebook-1" viewBox="0 0 32 32"><path fill="#f4f4fd" d="M21.329 5.313h2.921V.225C23.746.156 22.013 0 19.994 0c-4.212 0-7.097 2.649-7.097 7.519V12H8.249v5.688h4.648V32h5.699V17.689h4.46l.708-5.688h-5.169V8.082c.001-1.644.444-2.769 2.735-2.769z" style="fill:var(--color2, #f4f4fd)"/></symbol><symbol id="icon-twitter-1" viewBox="0 0 32 32"><path fill="#f4f4fd" d="M32 6.078c-1.19.522-2.458.868-3.78 1.036a6.523 6.523 0 0 0 2.886-3.626 13.11 13.11 0 0 1-4.16 1.588A6.574 6.574 0 0 0 22.154 3c-3.632 0-6.556 2.948-6.556 6.562 0 .52.044 1.02.152 1.496-5.454-.266-10.28-2.88-13.522-6.862a6.605 6.605 0 0 0-.898 3.316 6.57 6.57 0 0 0 2.914 5.452 6.479 6.479 0 0 1-2.964-.808v.072c0 3.188 2.274 5.836 5.256 6.446a6.548 6.548 0 0 1-1.72.216 5.8 5.8 0 0 1-1.242-.112c.85 2.598 3.262 4.508 6.13 4.57a13.182 13.182 0 0 1-8.134 2.798c-.538 0-1.054-.024-1.57-.09A18.469 18.469 0 0 0 10.064 29c12.072 0 18.672-10 18.672-18.668 0-.29-.01-.57-.024-.848A13.087 13.087 0 0 0 32 6.078z" style="fill:var(--color2, #f4f4fd)"/></symbol><symbol id="icon-instagram-1" viewBox="0 0 32 32"><path fill="#f4f4fd" d="M31.969 9.408c-.075-1.7-.35-2.869-.744-3.882a7.803 7.803 0 0 0-1.85-2.838A7.867 7.867 0 0 0 26.543.844C25.524.45 24.361.175 22.661.1 20.948.019 20.404 0 16.06 0s-4.888.019-6.595.094c-1.7.075-2.869.35-3.882.744a7.803 7.803 0 0 0-2.838 1.85A7.867 7.867 0 0 0 .901 5.52C.507 6.539.232 7.702.157 9.402c-.081 1.713-.1 2.257-.1 6.601s.019 4.888.094 6.595c.075 1.7.35 2.869.744 3.882a7.895 7.895 0 0 0 1.85 2.838 7.867 7.867 0 0 0 2.832 1.844c1.019.394 2.182.669 3.882.744 1.706.075 2.25.094 6.595.094s4.888-.018 6.595-.094c1.7-.075 2.869-.35 3.882-.744a8.181 8.181 0 0 0 4.682-4.682c.394-1.019.669-2.182.744-3.882.075-1.707.094-2.251.094-6.595s-.006-4.888-.081-6.595zm-2.882 13.065c-.069 1.563-.331 2.407-.55 2.969a5.307 5.307 0 0 1-3.038 3.038c-.563.219-1.413.481-2.969.55-1.688.075-2.194.094-6.464.094s-4.782-.018-6.464-.094c-1.563-.069-2.407-.331-2.969-.55a4.926 4.926 0 0 1-1.838-1.194 4.974 4.974 0 0 1-1.194-1.838c-.219-.563-.481-1.413-.55-2.969-.075-1.688-.094-2.194-.094-6.464s.019-4.782.094-6.464c.069-1.563.331-2.407.55-2.969a4.868 4.868 0 0 1 1.2-1.838A4.974 4.974 0 0 1 6.639 3.55c.563-.219 1.413-.481 2.969-.55 1.688-.075 2.194-.094 6.464-.094 4.276 0 4.782.019 6.464.094 1.563.069 2.407.331 2.969.55a4.914 4.914 0 0 1 1.838 1.194 4.974 4.974 0 0 1 1.194 1.838c.219.563.481 1.413.55 2.969.075 1.688.094 2.194.094 6.464s-.019 4.77-.094 6.457z" style="fill:var(--color2, #f4f4fd)"/><path fill="#f4f4fd" d="M16.059 7.782c-4.538 0-8.22 3.682-8.22 8.22s3.682 8.22 8.22 8.22 8.22-3.682 8.22-8.22-3.682-8.22-8.22-8.22zm0 13.553a5.333 5.333 0 0 1 0-10.664 5.333 5.333 0 0 1 0 10.664zM26.524 7.457a1.919 1.919 0 1 1-3.838 0 1.919 1.919 0 0 1 3.838 0z" style="fill:var(--color2, #f4f4fd)"/></symbol><symbol id="icon-astronaut-1" viewBox="0 0 32 32"><path fill="#4d5ae5" d="M31.974 4.524a.534.534 0 0 0-.43-.363l-1.91-.278-.855-1.731c-.179-.365-.777-.365-.956 0l-.855 1.731-1.91.278a.535.535 0 0 0-.296.91l1.383 1.348-.326 1.903c-.034.2.048.402.212.522a.53.53 0 0 0 .562.04l1.709-.899 1.709.899a.536.536 0 0 0 .775-.563l-.326-1.903 1.383-1.348a.536.536 0 0 0 .135-.547zm-2.463 1.327a.534.534 0 0 0-.153.472l.191 1.114-1-.526a.533.533 0 0 0-.498 0l-1.001.526.191-1.114a.534.534 0 0 0-.153-.472l-.81-.789 1.119-.163a.532.532 0 0 0 .402-.292l.5-1.013.5 1.013a.535.535 0 0 0 .402.292l1.119.163-.809.789zM26.134 20.522h-1.067v1.067h1.067v-1.067zM26.134 22.656h-1.067v1.067h1.067v-1.067zM27.2 21.589h-1.067v1.067H27.2v-1.067zM25.067 21.589H24v1.067h1.067v-1.067zM22.4 26.389h-1.067v1.067H22.4v-1.067zM22.4 28.522h-1.067v1.067H22.4v-1.067zM23.467 27.456H22.4v1.067h1.067v-1.067zM21.333 27.456h-1.067v1.067h1.067v-1.067zM16 24.256h-1.067v1.067H16v-1.067zM16 26.389h-1.067v1.067H16v-1.067zM17.067 25.322H16v1.067h1.067v-1.067zM14.933 25.322h-1.067v1.067h1.067v-1.067zM5.867 6.122H4.8v1.067h1.067V6.122zM5.867 8.255H4.8v1.067h1.067V8.255z" style="fill:var(--color3, #4d5ae5)"/><path fill="#4d5ae5" d="M6.933 7.189H5.866v1.067h1.067V7.189zM4.8 7.189H3.733v1.067H4.8V7.189z" style="fill:var(--color3, #4d5ae5)"/><path fill="#2e2f42" d="M24.715 14.159a1.775 1.775 0 0 0-1.188-.705 1.778 1.778 0 0 0-1.34.352l-1.252.96-1.898 1.417-1.358-.541c2.421-1.086 4.114-3.508 4.114-6.32 0-3.823-3.123-6.933-6.961-6.933s-6.961 3.11-6.961 6.933a6.86 6.86 0 0 0 1.12 3.758l-2.764-.024h-.005c-.009 0-.015.004-.023.005a.515.515 0 0 0-.155.031l-.038.013c-.006.003-.013.003-.019.006l-3.233 1.596-.001.001-1.893.911a.397.397 0 0 0-.063.035 1.779 1.779 0 0 0-.598 2.295c.22.429.595.745 1.056.889a1.776 1.776 0 0 0 1.378-.128l1.388-.738 2.264-1.169 1.357-.008L2.2 22.211l-.002.001-1.339 1.333c-.316.315-.49.732-.49 1.178s.174.863.49 1.179c.325.323.752.485 1.179.485s.854-.162 1.18-.485l1.314-1.309 1.741-1.3.901.897-1.762 1.754-.002.001-1.339 1.333c-.316.315-.49.732-.49 1.178s.174.863.49 1.179c.325.323.753.485 1.18.485s.855-.162 1.18-.485l3.482-3.467.001-.002 1.01-1-.004-.004c.006-.006.015-.009.022-.015l5.166-5.658 3.471.494a.52.52 0 0 0 .262-.033c.018-.006.033-.015.05-.023.019-.01.039-.015.058-.027l3.213-2.133c.012-.008.018-.021.029-.029.013-.01.029-.014.041-.026l1.271-1.191c.662-.62.753-1.635.212-2.362zM2.13 17.77a.714.714 0 0 1-.558.052.717.717 0 0 1-.213-1.26l1.314-.632.449 1.313-.992.527zm3.498-1.828-1.548.8-.439-1.283 2.027-1.001-.04 1.484zm15.099-6.62a5.79 5.79 0 0 1-.599 2.559l-4.181-1.899a1.863 1.863 0 0 0-.788-1.388l1.464-4.86c2.378.756 4.105 2.974 4.105 5.588zm-11.789 0c0-3.235 2.644-5.867 5.894-5.867.253 0 .5.021.745.052l-1.432 4.754c-.019-.001-.037-.006-.057-.006-1.033 0-1.873.837-1.873 1.867s.84 1.867 1.873 1.867c.694 0 1.294-.383 1.618-.945l3.862 1.755a5.894 5.894 0 0 1-4.737 2.39c-3.25 0-5.894-2.632-5.894-5.867zm5.956.8c0 .441-.362.8-.806.8s-.806-.359-.806-.8c0-.441.362-.8.806-.8s.806.359.806.8zM2.465 25.146a.608.608 0 0 1-.854.001.592.592 0 0 1 0-.844l.962-.958.851.848-.959.955zm3.214 3.734a.608.608 0 0 1-.855.001.592.592 0 0 1 0-.844l.963-.959.852.848-.96.955zm3.481-3.469-.002.001-1.765 1.76-.852-.848 1.763-1.755.002-.001c.04-.04.065-.088.09-.135.007-.014.02-.026.026-.04.017-.041.019-.085.026-.129.003-.025.014-.047.014-.073 0-.036-.013-.07-.02-.106-.006-.032-.006-.065-.019-.095a.55.55 0 0 0-.091-.138c-.01-.012-.014-.027-.025-.038h-.001l-.001-.002-1.607-1.6c-.017-.017-.039-.024-.058-.038a.507.507 0 0 0-.087-.058.515.515 0 0 0-.093-.033.507.507 0 0 0-.103-.02.5.5 0 0 0-.095.005.53.53 0 0 0-.104.02.477.477 0 0 0-.094.045c-.02.011-.042.015-.061.029L4.23 23.486l-.901-.897 2.399-2.386 4.361 4.289-.928.919zm6.819-7.017c-.015-.002-.03.004-.045.003a.556.556 0 0 0-.3.075.492.492 0 0 0-.083.061c-.013.011-.028.017-.04.029l-4.698 5.146-4.328-4.257 2.833-2.818a.534.534 0 0 0-.379-.911v-.001l-2.219.013.028-1.607 3.104.027a6.947 6.947 0 0 0 4.981 2.101c.437 0 .864-.045 1.279-.123.04.032.079.065.13.085l2.41.96.152.758.178.885-3.003-.427zm4.041.178-.313-1.558 1.446-1.08.947 1.257-2.08 1.381zm3.754-2.831-.838.785-.931-1.236.831-.637a.735.735 0 0 1 .543-.143.718.718 0 0 1 .48.284.713.713 0 0 1-.085.947z" style="fill:var(--color4, #2e2f42)"/><path fill="#2e2f42" d="m13.602 18.544-2.143-2.133a.534.534 0 0 0-.753 0l-2.142 2.133a.537.537 0 0 0 0 .756l2.142 2.133a.536.536 0 0 0 .753 0l2.143-2.133a.535.535 0 0 0 0-.756zm-2.519 1.759-1.387-1.381 1.387-1.381 1.387 1.381-1.387 1.381zM17.164 5.071l-.258 1.036c.071.018 1.738.452 1.738 2.149h1.067c0-2.017-1.666-2.965-2.547-3.185zM19.711 9.322h-1.067v1.067h1.067V9.322z" style="fill:var(--color4, #2e2f42)"/></symbol><symbol id="icon-diagram-1" viewBox="0 0 32 32"><path fill="#4d5ae5" d="M14.926 14.965h1.066v4.798h-1.066v-4.797zM19.19 17.097h1.066v2.665H19.19v-2.665zM10.661 18.696h1.066v1.066h-1.066v-1.066zM7.463 18.163h1.066v1.599H7.463v-1.599z" style="fill:var(--color3, #4d5ae5)"/><path fill="#2e2f42" d="M1.599 28.291h25.587a1.6 1.6 0 0 0 1.599-1.599V24.56a1.6 1.6 0 0 0-1.599-1.599h-.533V9.668L29.681 6.8a1.608 1.608 0 1 0-.746-.763L26.654 8.2V6.97a1.6 1.6 0 0 0-1.599-1.599H3.733A1.6 1.6 0 0 0 2.134 6.97v15.992h-.533a1.6 1.6 0 0 0-1.599 1.599v2.132a1.6 1.6 0 0 0 1.599 1.599zM30.384 4.837a.533.533 0 1 1 0 1.067.533.533 0 0 1 0-1.067zM3.198 6.969c0-.294.239-.533.533-.533h21.322c.294 0 .533.239.533.533v2.239l-1.066 1.013V8.035a.533.533 0 0 0-.533-.533H4.797a.533.533 0 0 0-.533.533v13.326c0 .294.239.533.533.533h19.19a.533.533 0 0 0 .533-.533v-9.674l1.066-1.01v12.284H3.198V6.969zm4.798 6.93a1.598 1.598 0 1 0 1.107 2.749l1.853.93a.532.532 0 0 0 .636-.123l3.939-4.431 3.872 2.901a.533.533 0 0 0 .686-.039l3.365-3.188v8.131H5.33V8.569h18.124v2.66l-3.771 3.572-3.904-2.927a.533.533 0 0 0-.718.072l-3.993 4.493-1.493-.746c.011-.064.018-.129.02-.193a1.6 1.6 0 0 0-1.599-1.599zm.533 1.599a.533.533 0 1 1-1.067 0 .533.533 0 0 1 1.067 0zm3.198 8.529h5.331v.533a.533.533 0 0 1-.533.533h-4.264a.533.533 0 0 1-.533-.533v-.533zm-10.661.533c0-.294.239-.533.533-.533h9.062v.533a1.6 1.6 0 0 0 1.599 1.599h4.264a1.6 1.6 0 0 0 1.599-1.599v-.533h9.062c.294 0 .533.239.533.533v2.132a.533.533 0 0 1-.533.533H1.598a.533.533 0 0 1-.533-.533V24.56z" style="fill:var(--color4, #2e2f42)"/></symbol><symbol id="icon-clock-1" viewBox="0 0 32 32"><path fill="#2e2f42" d="M31.297 15.301C31.295 6.849 24.442-.002 15.989 0S.686 6.855.688 15.308a15.304 15.304 0 0 0 10.649 14.576.662.662 0 0 0 .529-.065.637.637 0 0 0 .283-.356l3.865-12.25a1.912 1.912 0 1 0-.84-3.635l-5.106-5.107a.637.637 0 0 0-.902.902l5.103 5.109a1.876 1.876 0 0 0 .536 2.309l-3.683 11.673C3.844 25.783.118 17.71 2.799 10.432S13.553-.572 20.831 2.109c7.278 2.681 11.004 10.754 8.323 18.032a14.042 14.042 0 0 1-7.462 7.973l-.398-1.874a.637.637 0 0 0-1.049-.344l-3.837 3.426a.637.637 0 0 0 .231 1.084l4.899 1.564a.638.638 0 0 0 .819-.74l-.391-1.839a15.255 15.255 0 0 0 9.329-14.089zm-15.305-.637a.638.638 0 1 1 0 1.277.638.638 0 0 1 0-1.277zm2.101 14.864 2.184-1.948.603 2.84-2.787-.892z" style="fill:var(--color4, #2e2f42)"/><path fill="#4d5ae5" d="M15.354 3.185V4.46a.638.638 0 1 0 1.276 0V3.185a.638.638 0 0 0-1.276 0zM3.876 14.664a.638.638 0 0 0 0 1.276h1.275a.638.638 0 1 0 0-1.276H3.876zM28.108 15.939a.638.638 0 1 0 0-1.276h-1.275a.638.638 0 0 0 0 1.276h1.275z" style="fill:var(--color3, #4d5ae5)"/></symbol><symbol id="icon-antenna-1" viewBox="0 0 32 32"><path fill="#2e2f42" d="m30.773 22.098-8.443-8.505.937-4.615c.242.094.499.144.758.146h.006a2.159 2.159 0 1 0-2.008-1.435l-4.96.605L8.972.161a.534.534 0 0 0-.377-.16.532.532 0 0 0-.373.155L6.709 1.66a.534.534 0 0 0 0 .754l.814.826a14.943 14.943 0 0 0 2.519 17.663.513.513 0 0 0 .146.098c-.034.18-.051.364-.052.547v6.187h-6.4a2.67 2.67 0 0 0-2.667 2.667v1.067c0 .295.239.533.533.533h24.533a.533.533 0 0 0 .533-.533v-1.067a2.67 2.67 0 0 0-2.667-2.667h-6.4v-2.742a15.09 15.09 0 0 0 3.049.32 14.854 14.854 0 0 0 7.04-1.783l.818.823a.534.534 0 0 0 .377.16.532.532 0 0 0 .373-.155l1.513-1.504a.534.534 0 0 0 0-.754zM23.28 6.233a1.067 1.067 0 1 1 .753 1.822h-.003a1.067 1.067 0 0 1-.747-1.823h-.002zm-1.256 3.505-.598 2.946-1.175-1.182 1.774-1.763zm-.605-.902-1.92 1.909-1.485-1.493 3.405-.415zM24.004 28.8a1.6 1.6 0 0 1 1.6 1.6v.533H2.137V30.4a1.6 1.6 0 0 1 1.6-1.6h20.267zm-7.467-2.133v1.067h-5.333v-1.067h5.333zM11.204 25.6v-4.053c0-1.294 1.196-2.347 2.667-2.347s2.667 1.053 2.667 2.347V25.6h-5.333zm6.4-1.696v-2.357c0-1.882-1.675-3.413-3.733-3.413a3.8 3.8 0 0 0-3.281 1.786A13.87 13.87 0 0 1 8.311 4.033l18.602 18.708a13.818 13.818 0 0 1-9.309 1.163zm11.289-.684L7.836 2.039l.755-.752 7.935 7.98c.004 0 .006.007.01.01l13.115 13.191-.757.752z" style="fill:var(--color4, #2e2f42)"/><path fill="#4d5ae5" d="M13.876 20.267h-.005a1.6 1.6 0 1 0-.004 3.2h.005a1.6 1.6 0 1 0 .004-3.2zm.373 1.978a.534.534 0 0 1-.752-.756.534.534 0 0 1 .373-.155.534.534 0 0 1 .374.911h.005z" style="fill:var(--color3, #4d5ae5)"/></symbol></defs></svg>