<svg xmlns="http://www.w3.org/2000/svg" aria-hidden="true" style="position:absolute;width:0;height:0;overflow:hidden"><defs><symbol id="icon-paper-plane" viewBox="0 0 32 32"><path d="m32 2.667-32 15 10.227 3.156L26 8.5 14.002 21.988l.01.003-.012-.003v7.345l5.735-5.576L27 25.999l5-23.333z"/></symbol><symbol id="icon-Checkbox" viewBox="0 0 32 32"><path stroke-width="2" d="M4.2 1.25h23.6a2.95 2.95 0 0 1 2.95 2.95v23.6a2.95 2.95 0 0 1-2.95 2.95H4.2a2.95 2.95 0 0 1-2.95-2.95V4.2A2.95 2.95 0 0 1 4.2 1.25z"/></symbol><symbol id="icon-email" viewBox="0 0 24 32"><path d="M21.6 6.4H2.4A2.397 2.397 0 0 0 .012 8.8L0 23.2c0 1.32 1.08 2.4 2.4 2.4h19.2c1.32 0 2.4-1.08 2.4-2.4V8.8c0-1.32-1.08-2.4-2.4-2.4zm-.48 5.1-8.484 5.304c-.384.24-.888.24-1.272 0L2.88 11.5a1.019 1.019 0 1 1 1.08-1.728L12 14.8l8.04-5.028a1.019 1.019 0 1 1 1.08 1.728z"/></symbol><symbol id="icon-phone" viewBox="0 0 24 32"><path d="m21.47 19.085-3.04-.347a2.384 2.384 0 0 0-1.963.682l-2.202 2.202a18.002 18.002 0 0 1-7.887-7.887l2.214-2.214a2.381 2.381 0 0 0 .682-1.963l-.347-3.016a2.395 2.395 0 0 0-2.382-2.118H4.474c-1.352 0-2.477 1.125-2.394 2.477.634 10.221 8.809 18.384 19.018 19.018 1.352.084 2.477-1.041 2.477-2.394v-2.071a2.373 2.373 0 0 0-2.106-2.37z"/></symbol><symbol id="icon-person" viewBox="0 0 32 32"><path d="M16 16c4.42 0 8-3.58 8-8s-3.58-8-8-8-8 3.58-8 8 3.58 8 8 8zm0 4c-5.34 0-16 2.68-16 8v2c0 1.1.9 2 2 2h28c1.1 0 2-.9 2-2v-2c0-5.32-10.66-8-16-8z"/></symbol><symbol id="icon-icon-close" viewBox="0 0 32 32"><path d="M32 3.223 28.777 0 16 12.777 3.223 0 0 3.223 12.777 16 0 28.777 3.223 32 16 19.223 28.777 32 32 28.777 19.223 16 32 3.223z"/></symbol><symbol id="icon-client-6" viewBox="0 0 61 32"><path d="M31.538 15.638a1.916 1.916 0 0 1-.394-1.295v-1.877c0-.575.131-1.013.392-1.312s.71-.448 1.345-.447c.598 0 1.022.127 1.272.382.274.325.407.722.376 1.123v.441H33.46v-.447a2.284 2.284 0 0 0-.031-.437.42.42 0 0 0-.153-.26.612.612 0 0 0-.387-.101.659.659 0 0 0-.407.107.502.502 0 0 0-.177.287 2.126 2.126 0 0 0-.042.464v2.278c-.017.22.03.44.137.64.053.068.127.121.213.155s.182.046.276.036a.577.577 0 0 0 .378-.103.459.459 0 0 0 .159-.277c.025-.151.036-.304.033-.456v-.462h1.069v.422c.03.418-.1.832-.369 1.18-.246.279-.664.418-1.279.418s-1.08-.149-1.343-.458zM35.989 15.657c-.27-.292-.405-.718-.405-1.281v-1.974c0-.558.135-.98.405-1.266s.721-.429 1.354-.428c.628 0 1.078.143 1.348.428.27.287.407.709.407 1.266v1.974c0 .558-.137.985-.412 1.279s-.721.441-1.343.441-1.082-.149-1.354-.439zm1.852-.473c.097-.183.141-.383.128-.584v-2.417a1.079 1.079 0 0 0-.126-.573c-.054-.069-.13-.124-.218-.157s-.186-.045-.282-.033c-.096-.012-.194 0-.283.034s-.165.088-.22.157a1.053 1.053 0 0 0-.128.573v2.429a1.09 1.09 0 0 0 .128.584c.062.062.139.111.226.145a.754.754 0 0 0 .55 0 .66.66 0 0 0 .225-.145v-.012zM40.383 10.765h1.151l.865 3.643.885-3.643h1.12l.113 5.258h-.828l-.089-3.655-.854 3.655h-.664l-.885-3.668-.082 3.668h-.837l.104-5.258zM45.807 10.765H47.6c1.032 0 1.549.498 1.549 1.493 0 .953-.544 1.429-1.631 1.428h-.611v2.337h-1.106l.006-5.258zm1.531 2.248c.109.012.22.003.326-.025s.201-.077.283-.141a.85.85 0 0 0 .159-.594 1.637 1.637 0 0 0-.053-.477c-.016-.052-.044-.101-.082-.144s-.085-.079-.14-.106a1.158 1.158 0 0 0-.493-.084h-.43v1.571h.43zM50.744 10.765h1.188l1.219 5.258H52.12l-.241-1.213h-1.06l-.248 1.213h-1.047l1.219-5.258zm1.015 3.437-.413-2.207-.414 2.207h.827zM54.136 10.765h.775l1.483 3v-3h.918v5.258h-.737l-1.492-3.131v3.131h-.949l.002-5.258zM59.463 14.019l-1.232-3.246h1.038l.752 2.085.706-2.085h1.016l-1.217 3.246v2.005h-1.062v-2.005zM33.247 18.323v.275h-.903v2.137h-.378v-2.137h-.907v-.275h2.189zM36.077 20.735h-.292a.13.13 0 0 1-.082-.023.13.13 0 0 1-.049-.055l-.261-.573h-1.252l-.261.573a.154.154 0 0 1-.04.065.136.136 0 0 1-.082.023h-.292l1.106-2.412h.385l1.12 2.402zm-1.832-.896h1.045l-.443-.981a1.71 1.71 0 0 1-.082-.227l-.042.128-.04.101-.438.979zM37.984 20.498a1.167 1.167 0 0 0 .385-.029c.054-.012.107-.026.159-.044.049-.017.097-.038.148-.059v-.542h-.443a.085.085 0 0 1-.06-.019c-.007-.005-.013-.012-.017-.02s-.006-.016-.005-.024v-.185h.859v.924a1.578 1.578 0 0 1-.467.197c-.09.023-.183.04-.277.05-.107.01-.215.015-.323.015a1.695 1.695 0 0 1-.558-.09 1.34 1.34 0 0 1-.442-.252c-.123-.11-.22-.24-.285-.382a1.21 1.21 0 0 1-.102-.5 1.24 1.24 0 0 1 .1-.504 1.12 1.12 0 0 1 .285-.382c.126-.108.277-.194.442-.25.19-.062.391-.092.593-.09.103 0 .206.007.308.021.09.013.178.033.263.061.077.025.152.057.221.096.068.038.132.08.192.126l-.106.149c-.008.014-.021.025-.036.033s-.033.012-.05.013a.152.152 0 0 1-.069-.019 1.16 1.16 0 0 1-.108-.057 1.273 1.273 0 0 0-.352-.118 1.654 1.654 0 0 0-.281-.021 1.307 1.307 0 0 0-.427.067.84.84 0 0 0-.531.491 1.125 1.125 0 0 0 0 .804.867.867 0 0 0 .221.304.944.944 0 0 0 .323.191c.141.042.29.058.438.048zM41.512 20.459h1.208v.275h-1.577v-2.412h.378l-.009 2.137zM43.977 20.734h-.378v-2.412h.378v2.412zM45.385 18.334a.178.178 0 0 1 .057.044l1.618 1.818a.412.412 0 0 1 0-.086V18.313h.33v2.421h-.19a.191.191 0 0 1-.082-.013.228.228 0 0 1-.06-.046l-1.615-1.816v1.875h-.317v-2.412h.197c.021 0 .043.004.062.012zM50.175 18.323v.265h-1.341v.796h1.087v.256h-1.087v.823h1.341v.265h-1.731v-2.406h1.731zM10.523 3.429l16.802 4.117v14.426l-16.802-4.115V3.429zm-1.078-1.23v16.358l18.956 4.646V6.846L9.445 2.198z"/><path d="M19.604 30.797.646 26.147V9.79l18.958 4.648v16.359z"/><path d="m9.759 3.244 16.583 4.065-7.052 6.087L2.704 9.329l7.055-6.085zm-.314-1.045L.647 9.791l18.958 4.648 8.796-7.592L9.445 2.199zM20.671 29.877l7.73-6.671-7.73-1.896v8.568z"/></symbol><symbol id="icon-client-5" viewBox="0 0 61 32"><path d="M14.096 26.683c.16.178.246.402.241.631.008.15-.022.299-.086.437s-.163.261-.288.36a1.753 1.753 0 0 1-1.086.291h-1.909v-4.001h1.87c.369-.022.736.072 1.036.266.121.091.216.206.279.336s.092.271.083.413a.866.866 0 0 1-.217.612 1.03 1.03 0 0 1-.569.312c.253.042.482.163.645.342zm-2.239-.604h.799a.817.817 0 0 0 .508-.133c.06-.049.107-.11.136-.178s.042-.141.035-.213c.006-.072-.007-.145-.036-.213s-.075-.128-.134-.178a.822.822 0 0 0-.523-.134h-.786v1.05zm1.385 1.536c.064-.05.114-.112.147-.183s.047-.147.042-.224c.005-.077-.01-.154-.044-.226s-.085-.134-.15-.185a.893.893 0 0 0-.543-.145h-.838v1.101h.849c.191.01.38-.039.536-.139zM17.917 28.404l-1.04-1.564h-.391v1.564h-.894v-4.001h1.694c.427-.027.849.095 1.179.34.237.217.38.503.402.807s-.075.604-.277.849a1.426 1.426 0 0 1-.808.407l1.107 1.599h-.973zm-1.431-2.109h.732c.508 0 .762-.202.762-.606.005-.083-.009-.165-.041-.242s-.082-.148-.145-.207a.856.856 0 0 0-.576-.162h-.74l.009 1.218zM22.807 27.599h-1.782l-.315.805h-.938l1.637-3.957h1.014l1.631 3.957h-.938l-.308-.805zm-.238-.606-.651-1.689-.651 1.689h1.303zM28.928 28.404h-.888l-1.991-2.721v2.721h-.886v-4.001h.886l1.991 2.737v-2.737h.888v4.001zM33.997 27.446a1.847 1.847 0 0 1-.804.706 2.859 2.859 0 0 1-1.248.252h-1.581v-4.001h1.581c.432-.011.861.075 1.248.246.34.154.62.398.804.698.183.325.278.685.278 1.05s-.095.725-.278 1.05zm-1.017-.095c.253-.266.393-.604.393-.955s-.139-.689-.393-.955a1.653 1.653 0 0 0-1.112-.34h-.617v2.59h.617c.406.023.806-.099 1.112-.34zM23.363 2.144s11.463 3.896 11.219 9.534v9.536s-11.454-3.898-11.215-9.536l-.004-9.534zM44.795 18.982c2.165-1.341 4.669-2.172 7.283-2.417V13.58c-3.012 1.045-5.566 2.94-7.283 5.401z"/><path d="M43.494 19.881c1.771-3.212 4.843-5.691 8.583-6.926V4.354s-16.325 5.55-15.979 13.579V31.51s.727-.248 1.872-.714c0-.434 0-.872.052-1.312.338-3.727 2.306-7.181 5.472-9.602z"/><path d="M41.942 24.925c.086-.942.277-1.873.571-2.78-1.971 2.091-3.166 4.685-3.414 7.418a11.74 11.74 0 0 0-.044.782 48.95 48.95 0 0 0 3.14-1.49 12.678 12.678 0 0 1-.255-3.931zM42.591 24.974a12.165 12.165 0 0 0 .202 3.56c4.46-2.402 9.471-6.115 9.279-10.601v-.391c-3.186.321-6.168 1.575-8.486 3.57a12.337 12.337 0 0 0-.995 3.863z"/></symbol><symbol id="icon-client-4" viewBox="0 0 61 32"><path d="M8.751 10.94h-.002c-1.862 0-3.372 1.361-3.372 3.04v.002c0 1.678 1.51 3.04 3.372 3.04h.002c1.862 0 3.372-1.361 3.372-3.04v-.002c0-1.678-1.51-3.04-3.372-3.04zM33.636 9.969c-.005-2.332-1.035-4.566-2.864-6.216s-4.307-2.578-6.893-2.583c-2.587.004-5.066.932-6.896 2.582s-2.86 3.884-2.865 6.217v12.858s19.515-1.96 19.518-12.856v-.002zM-1.457 27.048c.004 1.622.722 3.177 1.994 4.325s2.996 1.794 4.796 1.799c1.799-.005 3.523-.651 4.795-1.798s1.989-2.701 1.994-4.324v-8.947s-13.579 1.364-13.579 8.945zm6.79 1.602c-.352 0-.696-.094-.988-.27s-.52-.426-.655-.72-.17-.615-.101-.926c.068-.311.238-.596.486-.821s.566-.377.91-.439.702-.03 1.027.091c.325.122.602.327.798.59s.3.574.3.89c.001.211-.044.42-.134.616s-.22.372-.385.522c-.165.15-.362.268-.578.349s-.448.122-.682.122v-.006zM17.751 25.768v3.33h-.686v-3.33h.686zm1.326 1.422v.535h-1.514v-.535h1.514zm.16-1.422v.538h-1.674v-.538h1.674zm3.132 1.587v.158c0 .253-.034.48-.103.682s-.166.373-.29.514a1.25 1.25 0 0 1-.448.322 1.423 1.423 0 0 1-.574.112c-.209 0-.4-.037-.574-.112a1.29 1.29 0 0 1-.448-.322 1.525 1.525 0 0 1-.295-.514 2.12 2.12 0 0 1-.103-.682v-.158c0-.254.034-.482.103-.682.068-.201.166-.373.29-.514.126-.142.276-.25.448-.325.174-.075.365-.112.574-.112.21 0 .402.038.574.112.174.075.323.183.448.325.126.142.224.314.293.514.07.2.105.427.105.682zm-.692.158v-.162c0-.177-.016-.332-.048-.466s-.079-.247-.142-.338-.139-.16-.228-.206c-.09-.047-.193-.071-.308-.071s-.219.024-.308.071a.614.614 0 0 0-.226.206c-.061.092-.108.204-.14.338s-.048.29-.048.466v.162c0 .176.016.331.048.466.032.134.079.248.142.34.062.092.139.161.228.208s.193.071.308.071.219-.024.308-.071a.598.598 0 0 0 .226-.208c.061-.093.108-.206.14-.34.032-.136.048-.291.048-.466zm2.92.713a.423.423 0 0 0-.028-.16.3.3 0 0 0-.096-.132c-.047-.041-.114-.082-.199-.121s-.196-.081-.332-.124a4.52 4.52 0 0 1-.43-.164 1.82 1.82 0 0 1-.357-.212.952.952 0 0 1-.242-.286.786.786 0 0 1-.087-.377c0-.139.03-.264.092-.377a.872.872 0 0 1 .256-.293c.11-.082.24-.146.389-.19.151-.044.316-.066.496-.066.246 0 .46.044.642.132s.325.21.426.364c.102.154.153.33.153.528h-.682a.503.503 0 0 0-.062-.256.41.41 0 0 0-.183-.176.648.648 0 0 0-.306-.064.7.7 0 0 0-.297.055.393.393 0 0 0-.178.144.352.352 0 0 0-.06.201c0 .056.014.108.041.153.029.046.072.088.128.128s.126.077.208.112c.082.035.178.069.286.103.182.055.34.116.478.185.139.068.254.146.348.231s.163.182.21.29.071.231.071.368c0 .145-.028.274-.084.389s-.138.211-.244.29-.234.14-.382.18a1.855 1.855 0 0 1-.496.062c-.164 0-.327-.022-.487-.064a1.46 1.46 0 0 1-.437-.199c-.13-.088-.233-.201-.311-.338s-.116-.3-.116-.487h.688c0 .104.016.191.048.263s.077.13.135.174c.06.044.13.076.21.096.082.02.172.03.27.03a.745.745 0 0 0 .293-.05.364.364 0 0 0 .172-.14.365.365 0 0 0 .057-.201zm2.64-2.458v3.33h-.684v-3.33h.684zm1.025 0v.538h-2.716v-.538h2.716zm2.625 2.794v.535h-1.772v-.535h1.772zm-1.548-2.794v3.33h-.686v-3.33h.686zm1.317 1.356v.522h-1.541v-.522h1.541zm.229-1.356v.538h-1.77v-.538h1.77zm.402 0h1.242c.254 0 .473.038.656.114.184.076.326.189.425.338s.148.333.148.551c0 .178-.03.332-.092.46a.874.874 0 0 1-.254.318 1.308 1.308 0 0 1-.382.201l-.217.114h-1.079l-.004-.535h.802c.12 0 .22-.022.3-.064s.139-.102.178-.178a.549.549 0 0 0 .062-.265c0-.107-.02-.199-.06-.276s-.1-.137-.181-.178-.182-.062-.304-.062h-.556v2.792h-.686v-3.33zm1.862 3.33-.759-1.484.725-.004.768 1.456v.032h-.734zm3.601-1.188h-.848v-.535h.848a.703.703 0 0 0 .32-.064c.082-.044.142-.105.181-.183s.057-.166.057-.263c0-.099-.019-.192-.057-.276s-.098-.154-.181-.206-.189-.078-.32-.078h-.61v2.792h-.686v-3.33h1.296c.26 0 .484.047.67.142a1.012 1.012 0 0 1 .579.951c0 .215-.05.401-.149.558s-.242.278-.43.364a1.59 1.59 0 0 1-.67.128zm3.956.652v.535h-1.772v-.535h1.772zm-1.548-2.794v3.33h-.686v-3.33h.686zm1.317 1.356v.522h-1.541v-.522h1.541zm.228-1.356v.538h-1.77v-.538h1.77zm1.938 0v3.33h-.684v-3.33h.684zm1.024 0v.538h-2.716v-.538h2.716zm2.625 2.794v.535h-1.772v-.535h1.772zm-1.548-2.794v3.33h-.686v-3.33h.686zm1.317 1.356v.522h-1.541v-.522h1.541zm.228-1.356v.538h-1.77v-.538h1.77zm.403 0h1.242c.254 0 .473.038.656.114.184.076.326.189.426.338s.148.333.148.551c0 .178-.03.332-.091.46a.864.864 0 0 1-.254.318 1.308 1.308 0 0 1-.382.201l-.217.114h-1.08l-.004-.535h.803c.12 0 .22-.022.299-.064a.421.421 0 0 0 .179-.178.538.538 0 0 0 .062-.265c0-.107-.02-.199-.059-.276s-.1-.137-.181-.178a.666.666 0 0 0-.304-.062h-.556v2.792h-.686v-3.33zm1.861 3.33-.76-1.484.725-.004.768 1.456v.032h-.734zm2.872-.872a.423.423 0 0 0-.027-.16.285.285 0 0 0-.096-.132c-.047-.041-.113-.082-.199-.121s-.196-.081-.331-.124a4.42 4.42 0 0 1-.43-.164 1.782 1.782 0 0 1-.356-.212.956.956 0 0 1-.243-.286.786.786 0 0 1-.086-.377c0-.139.03-.264.091-.377a.883.883 0 0 1 .256-.293c.11-.082.24-.146.389-.19.152-.044.317-.066.496-.066.245 0 .46.044.642.132.184.088.325.21.426.364.102.154.153.33.153.528h-.682a.503.503 0 0 0-.062-.256c-.039-.075-.1-.134-.182-.176s-.182-.064-.306-.064a.703.703 0 0 0-.297.055.398.398 0 0 0-.178.144.351.351 0 0 0-.059.201c0 .056.013.108.042.153s.071.088.128.128c.056.04.126.077.208.112s.178.069.286.103c.182.055.341.116.478.185.138.068.254.146.347.231s.163.182.211.29c.047.108.07.231.07.368 0 .145-.028.274-.084.389s-.138.211-.245.29c-.106.079-.234.14-.382.18s-.313.062-.496.062c-.164 0-.326-.022-.487-.064a1.455 1.455 0 0 1-.436-.199c-.13-.088-.234-.201-.312-.338s-.116-.3-.116-.487h.688c0 .104.016.191.048.263s.077.13.135.174c.059.044.13.076.211.096.082.02.172.03.27.03a.73.73 0 0 0 .292-.05.364.364 0 0 0 .172-.14.365.365 0 0 0 .057-.201z"/></symbol><symbol id="icon-client-3" viewBox="0 0 61 32"><path d="M18.688 32.564c.012 0 .025.002.036.007s.022.01.03.018l.172.162a1.436 1.436 0 0 1-.484.308 1.902 1.902 0 0 1-.688.11 1.87 1.87 0 0 1-.646-.103 1.44 1.44 0 0 1-.487-.291 1.292 1.292 0 0 1-.314-.45 1.475 1.475 0 0 1-.11-.576 1.379 1.379 0 0 1 .118-.578c.076-.168.188-.32.334-.45.147-.127.323-.226.517-.292.212-.07.438-.106.666-.103.212-.004.422.028.618.094.17.064.328.151.464.26l-.144.173a.187.187 0 0 1-.036.032.106.106 0 0 1-.058.013.16.16 0 0 1-.062-.018l-.078-.046-.108-.059a1.135 1.135 0 0 0-.34-.103 1.366 1.366 0 0 0-.256-.018 1.378 1.378 0 0 0-.478.078 1.003 1.003 0 0 0-.619.563 1.16 1.16 0 0 0-.088.456 1.2 1.2 0 0 0 .088.464 1.003 1.003 0 0 0 .597.558c.14.05.292.075.444.074.088.001.176-.004.263-.014a1.041 1.041 0 0 0 .568-.238.146.146 0 0 1 .082-.03zM23.665 31.75c.002.196-.036.39-.116.572-.07.166-.181.318-.324.444s-.318.226-.51.292a2.124 2.124 0 0 1-1.31 0 1.522 1.522 0 0 1-.506-.292 1.301 1.301 0 0 1-.328-.45 1.47 1.47 0 0 1 0-1.146c.074-.168.184-.32.328-.451.144-.122.316-.218.506-.282.422-.14.888-.14 1.31 0 .192.066.364.166.508.292a1.333 1.333 0 0 1 .442 1.02zm-.452 0a1.177 1.177 0 0 0-.082-.46.939.939 0 0 0-.23-.344 1.035 1.035 0 0 0-.364-.217c-.306-.1-.646-.1-.952 0a1.02 1.02 0 0 0-.364.217.912.912 0 0 0-.232.344c-.11.3-.11.621 0 .92a.936.936 0 0 0 .232.344c.101.094.226.168.364.216.307.098.645.098.952 0a.947.947 0 0 0 .594-.56c.058-.148.086-.304.082-.46zM27.06 32.233l.046.103c.018-.037.032-.07.05-.103a1.03 1.03 0 0 1 .056-.102l1.101-1.71c.022-.03.041-.048.062-.054.03-.008.06-.01.09-.01h.326v2.782h-.386v-2.131a.769.769 0 0 1 0-.096l-1.108 1.734c-.014.026-.036.048-.065.064s-.061.024-.094.024h-.062c-.034 0-.066-.008-.095-.023s-.051-.038-.064-.064l-1.14-1.745v2.233h-.372v-2.776h.326a.274.274 0 0 1 .09.01c.026.012.048.03.06.054l1.124 1.712a.58.58 0 0 1 .056.1zM31.203 32.095v1.042h-.431v-2.778h.961c.182-.003.362.018.536.06.14.034.269.093.38.173.096.076.17.168.216.272a.818.818 0 0 1 .073.356.797.797 0 0 1-.08.356.79.79 0 0 1-.232.278c-.11.084-.24.146-.382.184a1.818 1.818 0 0 1-.52.064l-.522-.008zm0-.299h.522c.114.002.226-.013.334-.042a.741.741 0 0 0 .242-.12.519.519 0 0 0 .198-.418c.005-.078-.01-.154-.043-.226s-.085-.136-.15-.19a.937.937 0 0 0-.58-.149h-.522v1.145zM36.994 33.14h-.34a.159.159 0 0 1-.094-.026.188.188 0 0 1-.056-.064l-.293-.672h-1.472l-.304.672a.152.152 0 0 1-.054.062.18.18 0 0 1-.097.028h-.34l1.292-2.782h.448l1.31 2.782zm-2.133-1.032h1.215l-.512-1.132a1.753 1.753 0 0 1-.097-.262l-.05.146a1.15 1.15 0 0 1-.048.118l-.508 1.13zM38.855 30.372a.168.168 0 0 1 .064.05l1.885 2.096v-2.16h.386v2.782h-.216a.237.237 0 0 1-.088-.016.256.256 0 0 1-.069-.052l-1.883-2.095a.769.769 0 0 1 0 .096v2.066h-.386v-2.782h.228c.026 0 .053.004.078.013zM44.366 32.034v1.104h-.43v-1.104l-1.191-1.675h.386a.15.15 0 0 1 .093.024.242.242 0 0 1 .058.062l.746 1.08a1.214 1.214 0 0 1 .132.247l.056-.12a.954.954 0 0 1 .074-.127l.735-1.088a.26.26 0 0 1 .056-.059.152.152 0 0 1 .093-.028h.39l-1.194 1.682zM26.847 25.692c.188.02.377.037.568.052 2.907-1.111 5.366-2.93 7.07-5.228s2.578-4.976 2.51-7.696l-3.204-2.738c.652 2.896.346 5.89-.88 8.647s-3.327 5.168-6.066 6.962z"/><path d="m25.703 25.564.086.014c2.926-1.788 5.158-4.286 6.406-7.17s1.454-6.021.592-9.006l-4.563-3.898c1.846 3.204 2.588 6.791 2.142 10.342s-2.064 6.921-4.663 9.718zM41.178 16.033c-.776 2.989-2.658 5.684-5.368 7.686a17.086 17.086 0 0 1-2.551 1.564c2.208-.554 4.236-1.534 5.93-2.864s3.008-2.975 3.84-4.808l-1.85-1.58z"/><path d="m40.452 15.593-2.635-2.252c-.05 2.566-.904 5.075-2.474 7.264s-3.796 3.98-6.448 5.184h.013c.591 0 1.182-.03 1.768-.09 2.48-.864 4.669-2.24 6.374-4.004s2.874-3.86 3.4-6.104zM26.085 3.86l-3.144-2.69c-2.81.928-5.226 2.558-6.934 4.68s-2.626 4.632-2.634 7.206c.01 2.844 1.131 5.604 3.184 7.842s4.921 3.828 8.15 4.518c2.883-3.001 4.57-6.71 4.818-10.586s-.958-7.72-3.442-10.971zM47.715 15.178c-.012-3.374-1.585-6.608-4.378-8.994s-6.577-3.73-10.526-3.74a16.992 16.992 0 0 0-5.336.848l19.246 16.443a11.01 11.01 0 0 0 .995-4.558z"/></symbol><symbol id="icon-client-2" viewBox="0 0 61 32"><path d="M29.384 2.421H29.3a9.985 9.985 0 0 0-.388-.014h-.28c-.244 0-.494.006-.741.019a.523.523 0 0 0-.056 0c-2.243.127-4.44.688-6.472 1.651l-.266.128v13.626l.623-.211a23.32 23.32 0 0 1 1.731-.513 21.155 21.155 0 0 1 4.982-.662v1.79a15.56 15.56 0 0 0-.655.019h-.051a19.948 19.948 0 0 0-3.833.588c-1.59.398-3.124.996-4.566 1.779V3.146a18.3 18.3 0 0 1 4.79-1.948 18.343 18.343 0 0 1 4.515-.582h.263c.314.008.621.022.909.044.759.053 1.511.173 2.25.358V2.78a13.947 13.947 0 0 0-2.179-.329l-.045-.004c-.152-.013-.304-.026-.446-.026zm3.101 1.801c.391.03.795.044 1.205.044a19.352 19.352 0 0 0 4.747-.609 19.57 19.57 0 0 0 4.565-1.781V19.04a18.313 18.313 0 0 1-4.792 1.948 18.486 18.486 0 0 1-4.515.581 13.772 13.772 0 0 1-3.425-.404V3.89c.265.061.537.117.814.164.455.077.934.133 1.401.167zm8.735.133-.623.21c-.573.193-1.15.365-1.731.518a21.098 21.098 0 0 1-5.173.663c-.406 0-.78-.011-1.141-.035l-.497-.033v14.017l.427.038c.395.035.803.052 1.214.052a16.567 16.567 0 0 0 4.074-.527 17.046 17.046 0 0 0 3.183-1.144l.267-.128V4.356zM20.536 26.593a.903.903 0 0 0-.693-.28 1.034 1.034 0 0 0-.4.075.901.901 0 0 0-.512.518 1.023 1.023 0 0 0-.072.387v2.335c-.006.165.026.328.092.479.055.12.135.226.233.313a.815.815 0 0 0 .321.166c.113.032.231.048.349.049a.891.891 0 0 0 .377-.081.961.961 0 0 0 .311-.216 1.013 1.013 0 0 0 .279-.685v-.261h-.61v.208a.528.528 0 0 1-.036.208.359.359 0 0 1-.089.131.365.365 0 0 1-.128.067.425.425 0 0 1-.128.022.312.312 0 0 1-.286-.125.548.548 0 0 1-.081-.313v-2.177a.738.738 0 0 1 .075-.349.306.306 0 0 1 .299-.14.33.33 0 0 1 .272.131c.068.09.104.2.101.313v.202h.604v-.238a1.093 1.093 0 0 0-.279-.737zM24.162 26.566a1.051 1.051 0 0 0-1.38 0 .961.961 0 0 0-.237.327 1.099 1.099 0 0 0-.089.452v2.239c-.004.157.026.314.089.459.055.12.136.227.237.313a.94.94 0 0 0 .322.197 1.028 1.028 0 0 0 .728 0c.121-.044.233-.111.33-.197a.948.948 0 0 0 .23-.313 1.08 1.08 0 0 0 .089-.459v-2.239a1.08 1.08 0 0 0-.089-.452 1.015 1.015 0 0 0-.23-.327zm-.285 3.019a.405.405 0 0 1-.121.324.445.445 0 0 1-.574 0 .397.397 0 0 1-.121-.324v-2.239a.405.405 0 0 1 .121-.324.445.445 0 0 1 .574 0 .397.397 0 0 1 .121.324v2.239zM28.924 30.585v-4.239h-.587l-.771 2.244h-.011l-.777-2.244h-.581v4.239h.606v-2.579h.011l.593 1.823h.302l.598-1.823h.011v2.579h.606zM32.365 26.643a.84.84 0 0 0-.343-.232 1.363 1.363 0 0 0-.439-.066h-.9v4.239h.604v-1.656h.311c.189.009.376-.031.545-.116a.882.882 0 0 0 .332-.324 1.02 1.02 0 0 0 .139-.369c.024-.159.035-.321.033-.482a2.421 2.421 0 0 0-.059-.606.898.898 0 0 0-.223-.39zm-.311 1.292a.547.547 0 0 1-.056.221.346.346 0 0 1-.156.149.619.619 0 0 1-.285.053h-.276v-1.441h.311a.578.578 0 0 1 .272.053.343.343 0 0 1 .142.157.624.624 0 0 1 .053.236v.282c0 .099.006.2 0 .291h-.006zM35.226 26.345h-.495l-.934 4.239h.604l.177-.911h.824l.177.911h.604l-.957-4.239zm-.557 2.751.297-1.537h.011l.296 1.537h-.604zM39.129 28.899h-.011l-.912-2.554h-.581v4.239h.604v-2.549h.013l.923 2.549h.568v-4.239h-.604v2.554zM42.82 26.345l-.486 1.685h-.012l-.486-1.685h-.64l.83 2.447v1.792h.604v-1.792l.83-2.447h-.639zM18.852 31.782h.291v.817h.198v-.817h.29v-.167h-.778v.167zM21.299 31.614l-.381.984h.21l.081-.224h.392l.084.224h.215l-.391-.984h-.21zm-.031.595.134-.365.134.365h-.268zM23.718 32.236h.227v.127a.38.38 0 0 1-.233.083.244.244 0 0 1-.209-.093.411.411 0 0 1-.073-.257c0-.219.095-.329.283-.329.05-.005.099.008.14.037s.07.071.083.12l.195-.038c-.042-.193-.181-.289-.417-.289a.495.495 0 0 0-.344.127.478.478 0 0 0-.141.379.532.532 0 0 0 .126.369.477.477 0 0 0 .374.144.59.59 0 0 0 .417-.157v-.388h-.427v.166zM26.189 31.614h-.199v.984h.69v-.167h-.49v-.817zM28.278 31.614h-.199v.984h.199v-.984zM30.321 32.271l-.403-.657h-.193v.984h.185v-.643l.395.643h.198v-.984h-.182v.657zM32.167 32.165h.49v-.167h-.49v-.216h.528v-.167h-.727v.984h.747v-.167h-.548v-.266zM36.644 32.002h-.388v-.388h-.198v.984h.198v-.43h.388v.43h.198v-.984h-.198v.388zM38.502 32.165h.492v-.167h-.492v-.216h.529v-.167h-.727v.984h.746v-.167h-.548v-.266zM41.02 32.165c.172-.027.258-.117.258-.274a.237.237 0 0 0-.097-.219.551.551 0 0 0-.288-.058h-.417v.984h.198v-.412h.039a.261.261 0 0 1 .123.022.21.21 0 0 1 .07.072l.215.313h.236l-.12-.193a.676.676 0 0 0-.218-.236zm-.199-.136h-.146v-.247h.156a.547.547 0 0 1 .201.023c.014.013.026.029.033.046a.133.133 0 0 1-.005.111.12.12 0 0 1-.038.043.547.547 0 0 1-.201.023zM42.92 32.165h.49v-.167h-.49v-.216h.529v-.167h-.729v.984h.747v-.167h-.548v-.266z"/></symbol><symbol id="icon-client-1" viewBox="0 0 61 32"><path d="m21.006 1.694 4.774 4.549-8.862-.005v22.068h23.163v-8.437l4.769 4.543V1.696H21.006zm18.866 17.639L26.336 6.437h13.536v12.896zm-4.202 5.744H20.585V10.235h1.067v13.836h14.019v1.005zm-12.078 7.315-.562-1.156h-.464l.815 1.53v.891h.421v-.891l.815-1.53h-.463l-.562 1.156zm2.073-1.156h.1l.915 2.422h-.439l-.196-.567h-.937l-.195.567h-.437l.911-2.422h.279zm-.444 1.524h.709l-.355-1.027-.354 1.027zm2.927-.402-.053-.068c-.062-.082-.111-.161-.145-.238s-.051-.157-.051-.239c0-.127.026-.235.078-.326s.126-.161.221-.209a.71.71 0 0 1 .335-.075c.123 0 .229.025.317.075a.51.51 0 0 1 .206.195.502.502 0 0 1 .073.266c0 .077-.014.147-.041.209s-.066.121-.115.173a1.235 1.235 0 0 1-.169.148l-.168.123.479.566a.966.966 0 0 0 .104-.453h.346c0 .117-.011.229-.035.335a1.039 1.039 0 0 1-.177.4l.355.419h-.464l-.141-.165a.911.911 0 0 1-.249.135 1.107 1.107 0 0 1-.376.063c-.161 0-.3-.029-.417-.088s-.209-.14-.273-.243a.666.666 0 0 1-.095-.355c0-.099.021-.185.061-.259a.797.797 0 0 1 .168-.209c.065-.059.14-.119.224-.179zm.198.244-.05.037a.59.59 0 0 0-.131.138.394.394 0 0 0-.068.217.357.357 0 0 0 .18.331c.06.033.133.05.218.05a.635.635 0 0 0 .391-.138l-.539-.634zm.096-.443.149-.1c.07-.047.12-.092.15-.137s.045-.102.045-.169c0-.057-.022-.111-.067-.159s-.107-.073-.188-.073a.243.243 0 0 0-.231.143.338.338 0 0 0 .009.296.994.994 0 0 0 .105.165l.028.035zm4.237.71h-.416a.729.729 0 0 1-.077.268.373.373 0 0 1-.168.165.638.638 0 0 1-.288.057c-.097 0-.181-.019-.251-.058s-.127-.093-.173-.165a.818.818 0 0 1-.1-.255 1.626 1.626 0 0 1-.031-.333v-.205c0-.129.011-.243.035-.343.025-.101.061-.185.108-.255s.107-.121.178-.157.154-.053.249-.053c.117 0 .211.02.283.06s.127.095.163.169a.783.783 0 0 1 .073.268h.416a1.042 1.042 0 0 0-.137-.431c-.073-.125-.176-.223-.309-.295s-.296-.107-.489-.107c-.152 0-.289.027-.411.08s-.225.131-.311.231c-.087.1-.153.22-.199.361a1.553 1.553 0 0 0-.068.473v.201c0 .174.022.331.067.473s.111.261.196.361c.085.099.188.175.307.229s.255.08.404.08c.195 0 .361-.035.497-.107s.242-.168.317-.291a.958.958 0 0 0 .133-.424zm2.31-.356v-.133c0-.183-.025-.347-.073-.491s-.116-.269-.205-.371c-.089-.103-.195-.181-.317-.235s-.259-.081-.409-.081c-.149 0-.285.027-.407.081s-.228.131-.317.235a1.075 1.075 0 0 0-.206.371 1.522 1.522 0 0 0-.073.491v.133c0 .183.025.347.073.493.05.145.12.269.209.371a.915.915 0 0 0 .724.315c.149 0 .286-.027.409-.08a.884.884 0 0 0 .316-.235c.089-.102.157-.225.205-.371s.071-.309.071-.493zm-.417-.136v.137c0 .135-.013.255-.04.359a.783.783 0 0 1-.113.265.493.493 0 0 1-.431.214.556.556 0 0 1-.246-.053.55.55 0 0 1-.187-.161c-.051-.072-.09-.16-.117-.265s-.04-.224-.04-.359v-.137c0-.135.013-.255.04-.357a.784.784 0 0 1 .115-.261.491.491 0 0 1 .185-.159c.072-.037.154-.055.246-.055s.175.019.248.055a.485.485 0 0 1 .185.159c.051.07.089.157.115.261.027.103.04.223.04.357z"/></symbol><symbol id="icon-linkedin-1" viewBox="0 0 32 32"><path d="M31.992 32v-.001H32V20.263c0-5.741-1.236-10.164-7.948-10.164-3.227 0-5.392 1.771-6.276 3.449h-.093v-2.913h-6.364v21.364h6.627V21.42c0-2.785.528-5.479 3.977-5.479 3.399 0 3.449 3.179 3.449 5.657v10.401h6.62zM.528 10.636h6.635V32H.528V10.636zM3.843 0C1.722 0 0 1.721 0 3.843s1.721 3.879 3.843 3.879c2.121 0 3.843-1.757 3.843-3.879A3.846 3.846 0 0 0 3.843 0z"/></symbol><symbol id="icon-facebook-1" viewBox="0 0 32 32"><path d="M21.329 5.313h2.921V.225C23.746.156 22.013 0 19.994 0c-4.212 0-7.097 2.649-7.097 7.519V12H8.249v5.688h4.648V32h5.699V17.689h4.46l.708-5.688h-5.169V8.082c.001-1.644.444-2.769 2.735-2.769z"/></symbol><symbol id="icon-twitter-1" viewBox="0 0 32 32"><path d="M32 6.078c-1.19.522-2.458.868-3.78 1.036a6.523 6.523 0 0 0 2.886-3.626 13.11 13.11 0 0 1-4.16 1.588A6.574 6.574 0 0 0 22.154 3c-3.632 0-6.556 2.948-6.556 6.562 0 .52.044 1.02.152 1.496-5.454-.266-10.28-2.88-13.522-6.862a6.605 6.605 0 0 0-.898 3.316 6.57 6.57 0 0 0 2.914 5.452 6.479 6.479 0 0 1-2.964-.808v.072c0 3.188 2.274 5.836 5.256 6.446a6.548 6.548 0 0 1-1.72.216 5.8 5.8 0 0 1-1.242-.112c.85 2.598 3.262 4.508 6.13 4.57a13.182 13.182 0 0 1-8.134 2.798c-.538 0-1.054-.024-1.57-.09A18.469 18.469 0 0 0 10.064 29c12.072 0 18.672-10 18.672-18.668 0-.29-.01-.57-.024-.848A13.087 13.087 0 0 0 32 6.078z"/></symbol><symbol id="icon-instagram-1" viewBox="0 0 32 32"><path d="M32.218 9.305c-.076-1.727-.355-2.914-.755-3.943a7.937 7.937 0 0 0-1.879-2.882A8.005 8.005 0 0 0 26.708.607c-1.035-.4-2.216-.679-3.943-.755-1.74-.083-2.292-.102-6.704-.102s-4.965.019-6.698.095C7.636-.079 6.449.201 5.42.6a7.95 7.95 0 0 0-2.883 1.879A8.018 8.018 0 0 0 .664 5.355c-.4 1.035-.679 2.216-.755 3.943-.083 1.74-.102 2.292-.102 6.705s.019 4.965.095 6.698c.076 1.727.356 2.914.756 3.943a8.015 8.015 0 0 0 1.879 2.882 8.005 8.005 0 0 0 2.876 1.873c1.035.4 2.216.679 3.943.755 1.733.077 2.286.095 6.698.095s4.965-.019 6.698-.095c1.727-.076 2.914-.355 3.942-.755a8.314 8.314 0 0 0 4.756-4.755c.4-1.035.679-2.216.755-3.943.076-1.733.095-2.286.095-6.698s-.007-4.965-.083-6.698zm-2.927 13.269c-.07 1.587-.337 2.444-.559 3.016a5.39 5.39 0 0 1-3.086 3.086c-.571.222-1.435.489-3.016.559-1.714.076-2.228.095-6.565.095s-4.857-.019-6.565-.095c-1.587-.07-2.444-.336-3.016-.559a4.983 4.983 0 0 1-1.866-1.213 5.055 5.055 0 0 1-1.213-1.867c-.222-.571-.489-1.435-.558-3.016-.076-1.714-.095-2.228-.095-6.565s.019-4.857.095-6.565c.07-1.587.336-2.444.558-3.016a4.937 4.937 0 0 1 1.219-1.867A5.044 5.044 0 0 1 6.49 3.355c.571-.222 1.435-.489 3.016-.559 1.714-.076 2.229-.095 6.565-.095 4.343 0 4.857.019 6.565.095 1.587.07 2.444.337 3.016.559.704.26 1.346.673 1.867 1.212.54.527.952 1.162 1.213 1.867.222.571.489 1.435.559 3.016.076 1.714.095 2.228.095 6.565s-.019 4.844-.095 6.558z"/><path d="M16.06 7.654c-4.609 0-8.349 3.739-8.349 8.349s3.74 8.349 8.349 8.349 8.349-3.739 8.349-8.349-3.739-8.349-8.349-8.349zm0 13.765a5.417 5.417 0 1 1 .002-10.834 5.417 5.417 0 0 1-.002 10.834zM26.688 7.324a1.95 1.95 0 1 1-3.899-.001 1.95 1.95 0 0 1 3.899.001z"/></symbol><symbol id="icon-astronaut-1" viewBox="0 0 32 32"><path d="M31.974 4.524a.534.534 0 0 0-.43-.363l-1.91-.278-.855-1.731c-.179-.365-.777-.365-.956 0l-.855 1.731-1.91.278a.535.535 0 0 0-.296.91l1.383 1.348-.326 1.903c-.034.2.048.402.212.522a.53.53 0 0 0 .562.04l1.709-.899 1.709.899a.536.536 0 0 0 .775-.563l-.326-1.903 1.383-1.348a.536.536 0 0 0 .135-.547zm-2.463 1.327a.534.534 0 0 0-.153.472l.191 1.114-1-.526a.533.533 0 0 0-.498 0l-1.001.526.191-1.114a.534.534 0 0 0-.153-.472l-.81-.789 1.119-.163a.532.532 0 0 0 .402-.292l.5-1.013.5 1.013a.535.535 0 0 0 .402.292l1.119.163-.809.789zM26.134 20.522h-1.067v1.067h1.067v-1.067zM26.134 22.656h-1.067v1.067h1.067v-1.067zM27.2 21.589h-1.067v1.067H27.2v-1.067zM25.067 21.589H24v1.067h1.067v-1.067zM22.4 26.389h-1.067v1.067H22.4v-1.067zM22.4 28.522h-1.067v1.067H22.4v-1.067zM23.467 27.456H22.4v1.067h1.067v-1.067zM21.333 27.456h-1.067v1.067h1.067v-1.067zM16 24.256h-1.067v1.067H16v-1.067zM16 26.389h-1.067v1.067H16v-1.067zM17.067 25.322H16v1.067h1.067v-1.067zM14.933 25.322h-1.067v1.067h1.067v-1.067zM5.867 6.122H4.8v1.067h1.067V6.122zM5.867 8.255H4.8v1.067h1.067V8.255z"/><path d="M6.933 7.189H5.866v1.067h1.067V7.189zM4.8 7.189H3.733v1.067H4.8V7.189z"/><path d="M24.715 14.159a1.775 1.775 0 0 0-1.188-.705 1.778 1.778 0 0 0-1.34.352l-1.252.96-1.898 1.417-1.358-.541c2.421-1.086 4.114-3.508 4.114-6.32 0-3.823-3.123-6.933-6.961-6.933s-6.961 3.11-6.961 6.933a6.86 6.86 0 0 0 1.12 3.758l-2.764-.024h-.005c-.009 0-.015.004-.023.005a.515.515 0 0 0-.155.031l-.038.013c-.006.003-.013.003-.019.006l-3.233 1.596-.001.001-1.893.911a.397.397 0 0 0-.063.035 1.779 1.779 0 0 0-.598 2.295c.22.429.595.745 1.056.889a1.776 1.776 0 0 0 1.378-.128l1.388-.738 2.264-1.169 1.357-.008L2.2 22.211l-.002.001-1.339 1.333c-.316.315-.49.732-.49 1.178s.174.863.49 1.179c.325.323.752.485 1.179.485s.854-.162 1.18-.485l1.314-1.309 1.741-1.3.901.897-1.762 1.754-.002.001-1.339 1.333c-.316.315-.49.732-.49 1.178s.174.863.49 1.179c.325.323.753.485 1.18.485s.855-.162 1.18-.485l3.482-3.467.001-.002 1.01-1-.004-.004c.006-.006.015-.009.022-.015l5.166-5.658 3.471.494a.52.52 0 0 0 .262-.033c.018-.006.033-.015.05-.023.019-.01.039-.015.058-.027l3.213-2.133c.012-.008.018-.021.029-.029.013-.01.029-.014.041-.026l1.271-1.191c.662-.62.753-1.635.212-2.362zM2.13 17.77a.714.714 0 0 1-.558.052.717.717 0 0 1-.213-1.26l1.314-.632.449 1.313-.992.527zm3.498-1.828-1.548.8-.439-1.283 2.027-1.001-.04 1.484zm15.099-6.62a5.79 5.79 0 0 1-.599 2.559l-4.181-1.899a1.863 1.863 0 0 0-.788-1.388l1.464-4.86c2.378.756 4.105 2.974 4.105 5.588zm-11.789 0c0-3.235 2.644-5.867 5.894-5.867.253 0 .5.021.745.052l-1.432 4.754c-.019-.001-.037-.006-.057-.006-1.033 0-1.873.837-1.873 1.867s.84 1.867 1.873 1.867c.694 0 1.294-.383 1.618-.945l3.862 1.755a5.894 5.894 0 0 1-4.737 2.39c-3.25 0-5.894-2.632-5.894-5.867zm5.956.8c0 .441-.362.8-.806.8s-.806-.359-.806-.8c0-.441.362-.8.806-.8s.806.359.806.8zM2.465 25.146a.608.608 0 0 1-.854.001.592.592 0 0 1 0-.844l.962-.958.851.848-.959.955zm3.214 3.734a.608.608 0 0 1-.855.001.592.592 0 0 1 0-.844l.963-.959.852.848-.96.955zm3.481-3.469-.002.001-1.765 1.76-.852-.848 1.763-1.755.002-.001c.04-.04.065-.088.09-.135.007-.014.02-.026.026-.04.017-.041.019-.085.026-.129.003-.025.014-.047.014-.073 0-.036-.013-.07-.02-.106-.006-.032-.006-.065-.019-.095a.55.55 0 0 0-.091-.138c-.01-.012-.014-.027-.025-.038h-.001l-.001-.002-1.607-1.6c-.017-.017-.039-.024-.058-.038a.507.507 0 0 0-.087-.058.515.515 0 0 0-.093-.033.507.507 0 0 0-.103-.02.5.5 0 0 0-.095.005.53.53 0 0 0-.104.02.477.477 0 0 0-.094.045c-.02.011-.042.015-.061.029L4.23 23.486l-.901-.897 2.399-2.386 4.361 4.289-.928.919zm6.819-7.017c-.015-.002-.03.004-.045.003a.556.556 0 0 0-.3.075.492.492 0 0 0-.083.061c-.013.011-.028.017-.04.029l-4.698 5.146-4.328-4.257 2.833-2.818a.534.534 0 0 0-.379-.911v-.001l-2.219.013.028-1.607 3.104.027a6.947 6.947 0 0 0 4.981 2.101c.437 0 .864-.045 1.279-.123.04.032.079.065.13.085l2.41.96.152.758.178.885-3.003-.427zm4.041.178-.313-1.558 1.446-1.08.947 1.257-2.08 1.381zm3.754-2.831-.838.785-.931-1.236.831-.637a.735.735 0 0 1 .543-.143.718.718 0 0 1 .48.284.713.713 0 0 1-.085.947z"/><path d="m13.602 18.544-2.143-2.133a.534.534 0 0 0-.753 0l-2.142 2.133a.537.537 0 0 0 0 .756l2.142 2.133a.536.536 0 0 0 .753 0l2.143-2.133a.535.535 0 0 0 0-.756zm-2.519 1.759-1.387-1.381 1.387-1.381 1.387 1.381-1.387 1.381zM17.164 5.071l-.258 1.036c.071.018 1.738.452 1.738 2.149h1.067c0-2.017-1.666-2.965-2.547-3.185zM19.711 9.322h-1.067v1.067h1.067V9.322z"/></symbol><symbol id="icon-diagram-1" viewBox="0 0 32 32"><path d="M14.926 14.965h1.066v4.798h-1.066v-4.797zM19.19 17.097h1.066v2.665H19.19v-2.665zM10.661 18.696h1.066v1.066h-1.066v-1.066zM7.463 18.163h1.066v1.599H7.463v-1.599z"/><path d="M1.599 28.291h25.587a1.6 1.6 0 0 0 1.599-1.599V24.56a1.6 1.6 0 0 0-1.599-1.599h-.533V9.668L29.681 6.8a1.608 1.608 0 1 0-.746-.763L26.654 8.2V6.97a1.6 1.6 0 0 0-1.599-1.599H3.733A1.6 1.6 0 0 0 2.134 6.97v15.992h-.533a1.6 1.6 0 0 0-1.599 1.599v2.132a1.6 1.6 0 0 0 1.599 1.599zM30.384 4.837a.533.533 0 1 1 0 1.067.533.533 0 0 1 0-1.067zM3.198 6.969c0-.294.239-.533.533-.533h21.322c.294 0 .533.239.533.533v2.239l-1.066 1.013V8.035a.533.533 0 0 0-.533-.533H4.797a.533.533 0 0 0-.533.533v13.326c0 .294.239.533.533.533h19.19a.533.533 0 0 0 .533-.533v-9.674l1.066-1.01v12.284H3.198V6.969zm4.798 6.93a1.598 1.598 0 1 0 1.107 2.749l1.853.93a.532.532 0 0 0 .636-.123l3.939-4.431 3.872 2.901a.533.533 0 0 0 .686-.039l3.365-3.188v8.131H5.33V8.569h18.124v2.66l-3.771 3.572-3.904-2.927a.533.533 0 0 0-.718.072l-3.993 4.493-1.493-.746c.011-.064.018-.129.02-.193a1.6 1.6 0 0 0-1.599-1.599zm.533 1.599a.533.533 0 1 1-1.067 0 .533.533 0 0 1 1.067 0zm3.198 8.529h5.331v.533a.533.533 0 0 1-.533.533h-4.264a.533.533 0 0 1-.533-.533v-.533zm-10.661.533c0-.294.239-.533.533-.533h9.062v.533a1.6 1.6 0 0 0 1.599 1.599h4.264a1.6 1.6 0 0 0 1.599-1.599v-.533h9.062c.294 0 .533.239.533.533v2.132a.533.533 0 0 1-.533.533H1.598a.533.533 0 0 1-.533-.533V24.56z"/></symbol><symbol id="icon-clock-1" viewBox="0 0 32 32"><path d="M31.297 15.301C31.295 6.849 24.442-.002 15.989 0S.686 6.855.688 15.308a15.304 15.304 0 0 0 10.649 14.576.662.662 0 0 0 .529-.065.637.637 0 0 0 .283-.356l3.865-12.25a1.912 1.912 0 1 0-.84-3.635l-5.106-5.107a.637.637 0 0 0-.902.902l5.103 5.109a1.876 1.876 0 0 0 .536 2.309l-3.683 11.673C3.844 25.783.118 17.71 2.799 10.432S13.553-.572 20.831 2.109c7.278 2.681 11.004 10.754 8.323 18.032a14.042 14.042 0 0 1-7.462 7.973l-.398-1.874a.637.637 0 0 0-1.049-.344l-3.837 3.426a.637.637 0 0 0 .231 1.084l4.899 1.564a.638.638 0 0 0 .819-.74l-.391-1.839a15.255 15.255 0 0 0 9.329-14.089zm-15.305-.637a.638.638 0 1 1 0 1.277.638.638 0 0 1 0-1.277zm2.101 14.864 2.184-1.948.603 2.84-2.787-.892z"/><path d="M15.354 3.185V4.46a.638.638 0 1 0 1.276 0V3.185a.638.638 0 0 0-1.276 0zM3.876 14.664a.638.638 0 0 0 0 1.276h1.275a.638.638 0 1 0 0-1.276H3.876zM28.108 15.939a.638.638 0 1 0 0-1.276h-1.275a.638.638 0 0 0 0 1.276h1.275z"/></symbol><symbol id="icon-antenna-1" viewBox="0 0 32 32"><path d="m30.773 22.098-8.443-8.505.937-4.615c.242.094.499.144.758.146h.006a2.159 2.159 0 1 0-2.008-1.435l-4.96.605L8.972.161a.534.534 0 0 0-.377-.16.532.532 0 0 0-.373.155L6.709 1.66a.534.534 0 0 0 0 .754l.814.826a14.943 14.943 0 0 0 2.519 17.663.513.513 0 0 0 .146.098c-.034.18-.051.364-.052.547v6.187h-6.4a2.67 2.67 0 0 0-2.667 2.667v1.067c0 .295.239.533.533.533h24.533a.533.533 0 0 0 .533-.533v-1.067a2.67 2.67 0 0 0-2.667-2.667h-6.4v-2.742a15.09 15.09 0 0 0 3.049.32 14.854 14.854 0 0 0 7.04-1.783l.818.823a.534.534 0 0 0 .377.16.532.532 0 0 0 .373-.155l1.513-1.504a.534.534 0 0 0 0-.754zM23.28 6.233a1.067 1.067 0 1 1 .753 1.822h-.003a1.067 1.067 0 0 1-.747-1.823h-.002zm-1.256 3.505-.598 2.946-1.175-1.182 1.774-1.763zm-.605-.902-1.92 1.909-1.485-1.493 3.405-.415zM24.004 28.8a1.6 1.6 0 0 1 1.6 1.6v.533H2.137V30.4a1.6 1.6 0 0 1 1.6-1.6h20.267zm-7.467-2.133v1.067h-5.333v-1.067h5.333zM11.204 25.6v-4.053c0-1.294 1.196-2.347 2.667-2.347s2.667 1.053 2.667 2.347V25.6h-5.333zm6.4-1.696v-2.357c0-1.882-1.675-3.413-3.733-3.413a3.8 3.8 0 0 0-3.281 1.786A13.87 13.87 0 0 1 8.311 4.033l18.602 18.708a13.818 13.818 0 0 1-9.309 1.163zm11.289-.684L7.836 2.039l.755-.752 7.935 7.98c.004 0 .006.007.01.01l13.115 13.191-.757.752z"/><path d="M13.876 20.267h-.005a1.6 1.6 0 1 0-.004 3.2h.005a1.6 1.6 0 1 0 .004-3.2zm.373 1.978a.534.534 0 0 1-.752-.756.534.534 0 0 1 .373-.155.534.534 0 0 1 .374.911h.005z"/></symbol></defs></svg>